<?xml version="1.0" encoding="utf-8"?>
<!-- Generator: Adobe Illustrator 27.7.0, SVG Export Plug-In . SVG Version: 6.00 Build 0)  -->
<svg version="1.1" id="layer" xmlns="http://www.w3.org/2000/svg" xmlns:xlink="http://www.w3.org/1999/xlink" x="0px" y="0px"
	 viewBox="0 0 652 652" style="enable-background:new 0 0 652 652;" xml:space="preserve">
<style type="text/css">
	.st0{fill-rule:evenodd;clip-rule:evenodd;fill:#A3A8A9;}
	.st1{fill:#A3A8A9;}
	.st2{fill:#ED1D24;}
</style>
<polygon class="st0" points="124.7,371.9 103.8,313.5 116.6,313.5 131.3,356.7 145.6,313.5 158.1,313.5 137.3,371.9 "/>
<polygon class="st0" points="166.1,371.9 166.1,313.5 209.4,313.5 209.4,323.4 177.8,323.4 177.8,336.3 207.2,336.3 207.2,346.2 
	177.8,346.2 177.8,362.1 210.5,362.1 210.5,371.9 "/>
<polygon class="st0" points="217.4,371.9 217.4,313.5 228.9,313.5 252.7,352.5 252.7,313.5 263.7,313.5 263.7,371.9 251.9,371.9 
	228.3,333.9 228.3,371.9 "/>
<polygon class="st0" points="289.2,371.9 289.2,323.4 271.9,323.4 271.9,313.5 318.3,313.5 318.3,323.4 300.9,323.4 300.9,371.9 "/>
<path class="st0" d="M326.3,313.5h11.8v31.6c0,5,0.2,8.3,0.5,9.7c0.5,2.4,1.7,4.3,3.6,5.8c1.9,1.5,4.5,2.1,7.8,2.1
	c3.4,0,5.8-0.7,7.6-2c1.7-1.4,2.7-3.1,3.1-5.1c0.4-2,0.5-5.3,0.5-9.9v-32.3h11.8v30.6c0,7-0.3,12-1,14.9c-0.6,2.9-1.8,5.3-3.5,7.3
	c-1.7,2-4,3.6-6.8,4.8c-2.8,1.2-6.6,1.8-11.2,1.8c-5.6,0-9.8-0.6-12.7-1.9c-2.8-1.3-5.1-3-6.8-5c-1.7-2.1-2.8-4.2-3.3-6.5
	c-0.8-3.4-1.2-8.3-1.2-14.8v-31.1H326.3z"/>
<path class="st0" d="M380.8,371.9v-58.4h24.9c6.2,0,10.7,0.5,13.6,1.6c2.8,1.1,5.1,2.9,6.8,5.6c1.7,2.7,2.5,5.8,2.5,9.2
	c0,4.4-1.3,8-3.8,10.9c-2.6,2.8-6.4,4.6-11.6,5.4c2.5,1.5,4.7,3.1,6.3,4.9c1.7,1.8,3.9,4.9,6.8,9.5l7.1,11.4h-14.1l-8.5-12.7
	c-3-4.5-5.1-7.4-6.2-8.5c-1.2-1.2-2.3-2-3.5-2.5c-1.2-0.5-3.2-0.7-5.9-0.7h-2.5v24.3L380.8,371.9L380.8,371.9z M392.6,338.2h8.7
	c5.7,0,9.2-0.2,10.6-0.7s2.5-1.3,3.3-2.5s1.2-2.6,1.2-4.4c0-2-0.5-3.5-1.6-4.8c-1.1-1.2-2.5-2-4.5-2.3c-0.9-0.2-3.8-0.2-8.6-0.2
	h-9.2V338.2L392.6,338.2z"/>
<polygon class="st0" points="441.4,371.9 441.4,313.5 484.6,313.5 484.6,323.4 453.2,323.4 453.2,336.3 482.5,336.3 482.5,346.2 
	453.2,346.2 453.2,362.1 485.8,362.1 485.8,371.9 "/>
<polygon class="st0" points="493.9,371.9 493.9,314 505.6,314 505.6,362.1 534.9,362.1 534.9,371.9 "/>
<polygon class="st0" points="543,371.9 543,314 554.7,314 554.7,362.1 584,362.1 584,371.9 "/>
<rect x="592.1" y="313.5" class="st0" width="11.8" height="58.4"/>
<path class="st0" d="M612.6,315.8c-1.1,1.1-1.6,2.3-1.6,3.8c0,1.5,0.5,2.8,1.5,3.8c1.1,1.1,2.3,1.6,3.8,1.6s2.8-0.5,3.8-1.6
	c1.1-1.1,1.5-2.4,1.5-3.8c0-1.5-0.5-2.8-1.5-3.8c-1.1-1.1-2.3-1.6-3.8-1.6C614.9,314.2,613.7,314.7,612.6,315.8 M620.9,324.1
	c-1.2,1.2-2.7,1.8-4.5,1.8s-3.2-0.6-4.5-1.8c-1.2-1.2-1.8-2.7-1.8-4.5c0-1.8,0.6-3.2,1.8-4.5c1.2-1.2,2.7-1.8,4.5-1.8
	s3.2,0.6,4.5,1.8c1.2,1.2,1.8,2.7,1.8,4.5C622.8,321.3,622.2,322.8,620.9,324.1 M617.6,317.2c-0.3-0.2-0.8-0.2-1.5-0.2h-1v2.5h1.1
	c0.5,0,0.9-0.1,1.2-0.2c0.5-0.2,0.7-0.5,0.7-1.1C618.1,317.7,617.9,317.4,617.6,317.2 M616.3,316.1c0.8,0,1.5,0.1,1.9,0.2
	c0.7,0.3,1.1,0.8,1.1,1.8c0,0.6-0.2,1.1-0.7,1.4c-0.2,0.2-0.5,0.3-1,0.3c0.5,0.1,0.9,0.3,1.2,0.7c0.2,0.4,0.4,0.7,0.4,1.1v0.5
	c0,0.2,0,0.3,0,0.5c0,0.2,0,0.3,0.1,0.4v0.1h-1.2V323v-0.1v-0.2v-0.5c0-0.8-0.2-1.3-0.6-1.6c-0.2-0.2-0.7-0.2-1.4-0.2h-0.9v2.7h-1.2
	v-6.9H616.3L616.3,316.1z"/>
<polygon class="st1" points="337.9,398.7 343.6,398.7 346.3,412.1 346.4,412.1 349,398.7 354.7,398.7 354.7,417.7 351.2,417.7 
	351.2,402.6 351.2,402.6 347.8,417.7 344.8,417.7 341.5,402.6 341.5,402.6 341.5,417.7 337.9,417.7 "/>
<rect x="357.6" y="413.5" class="st1" width="3.5" height="4.1"/>
<path class="st1" d="M367.5,398.7h4.7l5,18.9h-4l-0.8-4h-5l-0.8,4h-4L367.5,398.7z M368,410.5h3.7l-1.8-8.5h-0.1L368,410.5z"/>
<rect x="378.6" y="413.5" class="st1" width="3.5" height="4.1"/>
<path class="st1" d="M385,398.7h6.2c5.3,0,6.2,3.6,6.2,9.2c0,6.7-1.5,9.7-6.5,9.7h-6L385,398.7L385,398.7z M388.9,414.8h1.7
	c2.6,0,3.1-1.7,3.1-6.8c0-4.3-0.4-6.5-3.2-6.5h-1.6V414.8z"/>
<rect x="399.5" y="413.5" class="st1" width="3.5" height="4.1"/>
<polygon class="st1" points="416.3,398.7 416.3,401.9 409.6,401.9 409.6,406.3 416,406.3 416,409.5 409.6,409.5 409.6,414.5 
	416.7,414.5 416.7,417.7 405.8,417.7 405.8,398.7 "/>
<rect x="418.6" y="413.5" class="st1" width="3.5" height="4.1"/>
<polygon class="st1" points="430.2,398.7 440.8,398.7 440.8,401.9 434.1,401.9 434.1,406.3 440.4,406.3 440.4,409.5 434.1,409.5 
	434.1,417.7 430.2,417.7 "/>
<path class="st1" d="M448.6,398.3c5.8,0,6.4,4.1,6.4,9.8s-0.7,9.8-6.4,9.8s-6.4-4.1-6.4-9.8S442.8,398.3,448.6,398.3 M448.6,415.2
	c2.2,0,2.6-1.9,2.6-7c0-5.1-0.4-7-2.6-7c-2.2,0-2.6,2-2.6,7C446,413.3,446.3,415.2,448.6,415.2"/>
<path class="st1" d="M457.2,398.7h7.1c3.1,0,5.1,1.6,5.1,4.8c0,2.5-1,4.2-3.1,4.7v0.1c2.6,0.4,3,1.8,3.1,5.8c0,2,0.2,3,0.8,3.4v0.2
	H466c-0.4-0.5-0.5-1.2-0.5-2l-0.1-3.6c-0.1-1.5-0.7-2.4-2.2-2.4h-2.1v8h-3.8L457.2,398.7L457.2,398.7z M461.1,407h1.6
	c1.8,0,2.8-0.8,2.8-2.8c0-1.8-0.9-2.6-2.6-2.6h-1.8L461.1,407L461.1,407z"/>
<path class="st1" d="M486.4,405.1c0-2.8-0.5-3.9-2.3-3.9c-1.9,0-2.4,1.9-2.4,7.3c0,5.8,0.8,6.8,2.5,6.8c1.4,0,2.4-0.7,2.4-4.8h3.8
	c0,4.1-1,7.6-6,7.6c-5.8,0-6.4-4.1-6.4-9.8s0.7-9.8,6.4-9.8c5.4,0,5.8,4,5.8,6.8L486.4,405.1L486.4,405.1z"/>
<polygon class="st1" points="492.5,398.7 496.4,398.7 496.4,405.9 500.8,405.9 500.8,398.7 504.6,398.7 504.6,417.7 500.8,417.7 
	500.8,409.2 496.4,409.2 496.4,417.7 492.5,417.7 "/>
<path class="st1" d="M511,398.7h4.7l5,18.9h-4l-0.8-4h-5l-0.8,4h-4L511,398.7z M511.4,410.5h3.7l-1.8-8.5h-0.1L511.4,410.5z"/>
<polygon class="st1" points="522.1,398.7 527.7,398.7 530.5,412.1 530.5,412.1 533.2,398.7 538.8,398.7 538.8,417.7 535.4,417.7 
	535.4,402.6 535.3,402.6 531.9,417.7 529,417.7 525.6,402.6 525.5,402.6 525.5,417.7 522.1,417.7 "/>
<path class="st1" d="M541.6,398.7h6.7c3.8,0,5.2,2.8,5.2,5.7c0,3.9-2.4,5.7-6,5.7h-2.1v7.5h-3.8V398.7z M545.4,407.3h1.7
	c1.5,0,2.5-0.9,2.5-2.8c0-1.8-0.8-2.9-2.6-2.9h-1.6V407.3z"/>
<rect x="555.5" y="398.7" class="st1" width="3.8" height="18.9"/>
<path class="st1" d="M568.2,398.3c5.8,0,6.4,4.1,6.4,9.8s-0.7,9.8-6.4,9.8c-5.7,0-6.4-4.1-6.4-9.8S562.5,398.3,568.2,398.3
	 M568.2,415.2c2.2,0,2.6-1.9,2.6-7c0-5.1-0.4-7-2.6-7c-2.2,0-2.6,2-2.6,7C565.6,413.3,565.9,415.2,568.2,415.2"/>
<polygon class="st1" points="581.3,398.7 585.9,411.7 585.9,411.7 585.9,398.7 589.4,398.7 589.4,417.7 585.1,417.7 580.4,404.4 
	580.3,404.4 580.3,417.7 576.9,417.7 576.9,398.7 "/>
<path class="st1" d="M595.1,411.8v0.5c0,1.8,0.5,2.9,2.5,2.9c1.2,0,2.3-0.8,2.3-2.3c0-1.7-0.8-2.4-3.4-3.2c-3.4-1.2-4.9-2.6-4.9-5.8
	c0-3.7,2.2-5.5,5.8-5.5c3.4,0,5.8,1.5,5.8,5.1v0.5h-3.7c0-1.8-0.6-2.8-2.1-2.8c-1.8,0-2.1,1.1-2.1,2.2s0.3,1.8,1.9,2.5l2.9,1.2
	c2.8,1.2,3.6,2.7,3.6,5c0,4-2.5,5.8-6.6,5.8c-4.3,0-6-2-6-5.5v-0.8L595.1,411.8L595.1,411.8z"/>
<path class="st2" d="M130,122.2c-0.5-1.5-0.6,2.3-0.6,2.3s0.4,30.6-5.4,46c-5.8,15.3-12.7,25.9-22.4,36.5
	C91.9,217.7,70,235.9,70,235.9S63.3,213,63,186c-0.2-26.9,10.3-47.4,14.3-53.8c10.7-17.6,23-27.9,30.8-34.2c0,0,1.7-1.4,0.9-1.2
	c-0.8,0.2-49,14.1-60.7,65.4c-6.8,38.8,3.6,74,3.6,74l3.1,13.5c0,0-19,21-23.3,58.8c-4.6,34.9,16.1,65.1,16.1,65.1
	s-8.3,30.5-9.1,52.7c-0.8,22.2,4.1,40.7,15.7,53.9c3.9,2.2-7.5-8.1-6.7-29.6c1-16.3,2.8-33.2,12.6-60.4c6.8,8.5,9.4,31.9,9.4,31.9
	s2.1,17.2,0.2,27.6c-0.5,2.5,0.6,0.2,0.6,0.2s5.2-18,7-30.9c1.8-19.6-2.2-25-3.1-27.6c-1.1-2.3-5.8-10.1-8.9-15.5
	c2.2-5.5,13.3-24.7,17.8-50.8c3.1-27.9,1-37.7-4.7-57.3c-4.4-15-4.1-14-4.1-14s12.5-10.2,27.7-23.6c11.3-12,16.9-16.4,29.2-38.1
	C149.1,157.2,130.5,123.7,130,122.2 M67,310.6c-2.3,17-2.5,23.5-10.7,40.7l-0.4-0.9c0,0-6.8-25.2-4.8-43.2
	c1.9-18,5.4-26.5,10.3-37.1C61.4,270.1,69,289.7,67,310.6"/>
<path class="st2" d="M101,137c-10.9-3.8-24.8,7.8-30.8,25.6c-6.1,17.9-2.2,35.5,8.7,39.1c10.9,3.8,24.7-7.8,30.8-25.6
	C115.8,158.2,111.9,140.7,101,137"/>
</svg>
