<?xml version="1.0" encoding="utf-8"?>
<!-- Generator: Adobe Illustrator 27.5.0, SVG Export Plug-In . SVG Version: 6.00 Build 0)  -->
<svg version="1.1" id="Layer_1" xmlns="http://www.w3.org/2000/svg" xmlns:xlink="http://www.w3.org/1999/xlink" x="0px" y="0px"
	 viewBox="0 0 337.5 290.7" style="enable-background:new 0 0 337.5 290.7;" xml:space="preserve">
<style type="text/css">
	.st0{fill:#0082BF;}
	.st1{fill:#F99C24;}
	.st2{fill:#1C75BC;}
	.st3{fill:#27AAE1;}
	.st4{fill:#EF3A4C;}
	.st5{fill:#FFC60A;}
	.st6{fill:#C12033;}
</style>
<g>
	<g>
		<circle class="st0" cx="48.3" cy="141.7" r="15.1"/>
		<path class="st1" d="M120.8,104.8c0-2.1,0-4.2-0.1-6.2c-0.2,1.9-0.3,3.7-0.4,5.5c0,0.5,0,1,0,1.5h0.5
			C120.9,105.4,120.8,105.1,120.8,104.8z"/>
		<g>
			<path class="st2" d="M37.1,227.5c0-0.6,0-1.1-0.1-1.7c-0.1-0.4-5.3-33.4-9.4-63.9l-2.3-18l-1.6-18.2c-0.5-6-5.8-10.4-11.8-9.9
				c-6,0.5-10.4,5.8-9.9,11.8l1.7,18.4l0,0.3c0.7,5.8,1.5,12,2.4,18.3v0l0,0c3.6,26.9,8.1,55.6,9.2,62.8L37.1,227.5L37.1,227.5z"/>
			<path class="st3" d="M65.5,2.2C53.6,2.5,36.4,4.8,22.7,20C3,41.7-3.2,83.1,3.7,146.3l1.6,12.2l19-25.4
				c-3.1-36.5-2.4-79.7,14.6-98.6C45,27.8,52.1,25.2,60,24.3L75.9,3C74.7,2.4,67.8,2.1,65.5,2.2z"/>
		</g>
		
			<ellipse transform="matrix(0.1602 -0.9871 0.9871 0.1602 130.701 297.0315)" class="st4" cx="239.9" cy="71.7" rx="15.1" ry="15.1"/>
		<g>
			<path class="st1" d="M156,25.2c-9.1,7.6-16.4,16-21.6,25.5c4.8,12.8,8.2,30.3,8.2,54.1c0,0.3,0,0.6,0,0.9h0.5c0-0.1,0-0.1,0-0.2
				c3-49.5,27.4-65,40.4-69.7l11.3-25.1C184.8,11.3,169.4,14.1,156,25.2z"/>
			<path class="st5" d="M112.2,19.7L99.1,37.1c1.5,0.9,5.8,3.7,10.1,11.1c4.9,8.3,10.7,23.6,11.5,50.3c1.4-14.9,5.1-32.3,13.7-47.8
				C127.7,32.7,118.4,23.8,112.2,19.7z"/>
			<path class="st1" d="M134.4,50.7c-8.6,15.6-12.3,32.9-13.7,47.8c0.1,2,0.1,4.1,0.1,6.2c0,0.3,0,0.6,0,0.9h21.7c0-0.3,0-0.6,0-0.9
				C142.6,81.1,139.2,63.6,134.4,50.7z"/>
			<path class="st5" d="M134.4,50.7c-8.6,15.6-12.3,32.9-13.7,47.8c0.1,2,0.1,4.1,0.1,6.2c0,0.3,0,0.6,0,0.9h21.7c0-0.3,0-0.6,0-0.9
				C142.6,81.1,139.2,63.6,134.4,50.7z"/>
		</g>
		<g>
			<path class="st6" d="M279.4,163.5c-8.9,40.4-20.9,89.5-33.8,126.2c0,0,0,0,0,0h24.1c20-59.8,37.1-143.4,44-179.3
				C305.6,146.8,291.1,159.5,279.4,163.5z"/>
			<path class="st6" d="M296.5,102.3c-0.8,0.7-1.7,1.6-2.6,2.5c1-1,2-2,3.1-2.9C296.8,102.1,296.7,102.2,296.5,102.3z"/>
			<path class="st6" d="M291,107.8c0.5-0.5,0.9-1,1.4-1.5C291.7,107.1,291.2,107.7,291,107.8z"/>
			<path class="st4" d="M290.9,107.9L290.9,107.9C290.9,107.9,291,107.9,290.9,107.9C291,107.8,291,107.9,290.9,107.9z"/>
			<path class="st4" d="M312.3,48.5c-39.1,18.6-63.8,41.1-73.5,67.1c-5,13.3-1.7,28.7,8.3,39.2c6.4,6.7,14.5,10.3,22.8,10.3
				c3,0,6-0.5,9-1.4c0.2-0.1,0.4-0.1,0.5-0.2c4.9-22.3,8.9-42,11.5-55.5c-5.4,23.4-12.1,32.9-18.7,35c-4.3,1.4-7.7-1.4-9.4-3.2
				c-3.6-3.7-6.1-10.3-3.7-16.6c9.5-25.5,39.2-44,62.5-55c3.6-1.7,7.2-3.3,10.7-4.8l5.2-25.4C329.4,40.8,320.9,44.4,312.3,48.5z"/>
			<path class="st4" d="M293.9,104.8c-0.5,0.5-1,1-1.5,1.5C292.9,105.9,293.4,105.4,293.9,104.8z"/>
			<path class="st4" d="M316.1,98.1c0.2-1.1,1.5-8.7,1.6-10.3c-0.1,1.4-1.1,7-1.1,7C316.4,96,316.2,97,316.1,98.1z"/>
			<path class="st4" d="M317.6,87.9c0,0-9.8,4.3-20.6,14.1c3.5-3.1,7.2-6,11.1-8.6L317.6,87.9z"/>
			<path class="st6" d="M313.7,110.4c1-5.1,1.8-9.3,2.3-12.3c0.2-1.1,0.3-2.1,0.5-3.3c0,0,0.9-5.6,1.1-7l-9.6,5.5
				c-3.9,2.6-7.6,5.4-11.1,8.6c-1,0.9-2,1.9-3.1,2.9c-0.6,0.6-1.1,1.1-1.5,1.5c-0.5,0.5-0.9,0.9-1.4,1.5c0,0-0.1,0.1-0.1,0.1
				c-2.6,13.5-6.6,33.2-11.5,55.5C291.1,159.5,305.6,146.8,313.7,110.4z"/>
			<path class="st4" d="M313.7,110.4c1-5.1,1.8-9.3,2.3-12.3c0.2-1.1,0.3-2.1,0.5-3.3c0,0,0.9-5.6,1.1-7l-9.6,5.5
				c-3.9,2.6-7.6,5.4-11.1,8.6c-1,0.9-2,1.9-3.1,2.9c-0.6,0.6-1.1,1.1-1.5,1.5c-0.5,0.5-0.9,0.9-1.4,1.5c0,0-0.1,0.1-0.1,0.1
				c-2.6,13.5-6.6,33.2-11.5,55.5C291.1,159.5,305.6,146.8,313.7,110.4z"/>
		</g>
	</g>
</g>
</svg>
