<?xml version="1.0" encoding="utf-8"?>
<!-- Generator: Adobe Illustrator 27.7.0, SVG Export Plug-In . SVG Version: 6.00 Build 0)  -->
<svg version="1.1" id="layer" xmlns="http://www.w3.org/2000/svg" xmlns:xlink="http://www.w3.org/1999/xlink" x="0px" y="0px"
	 viewBox="0 0 652 178" style="enable-background:new 0 0 652 178;" xml:space="preserve">
<style type="text/css">
	.st0{fill-rule:evenodd;clip-rule:evenodd;fill:#007ABF;}
	.st1{fill-rule:evenodd;clip-rule:evenodd;fill:#FFFFFF;}
	.st2{fill-rule:evenodd;clip-rule:evenodd;fill:#FEFEFE;}
	.st3{fill:none;stroke:#E85123;stroke-width:2.8158;}
	.st4{fill-rule:evenodd;clip-rule:evenodd;fill:#E85123;}
	.st5{fill-rule:evenodd;clip-rule:evenodd;fill:#0F7DC5;}
</style>
<g>
	<path class="st0" d="M23.1,89.7c0-36.9,29.8-66.8,66.6-66.8c36.7,0,66.5,29.9,66.5,66.8s-29.8,66.8-66.5,66.8
		C52.9,156.5,23.1,126.6,23.1,89.7"/>
	<path class="st1" d="M130,142c-1.1-0.9-3.1-2.5-6-4.2c3.7-3.6,7-7.6,9.7-11.8c4.2,1.8,7,3.4,8.2,4.1
		C138.4,134.6,134.4,138.6,130,142L130,142z M115,150.8c-0.8-0.7-2.2-1.7-4-2.8c2-1.2,4-2.6,6-4.1s3.9-3.1,5.7-4.7
		c2.6,1.5,4.6,3,5.8,4C124.3,146.2,119.8,148.8,115,150.8L115,150.8z M37.6,130.2c1.2-0.8,3.9-2.4,8-4.2c2.7,4.2,6,8.2,9.8,11.9
		c-3.1,1.9-5,3.5-5.8,4.2C45.1,138.6,41.1,134.6,37.6,130.2L37.6,130.2z M36.2,50.7c0.9,0.6,3.8,2.3,8.5,4.4
		c-0.2,0.4-0.5,0.8-0.7,1.3c-2.7,4.7-4.7,9.6-6.1,14.9c-6-1.1-9.7-2.1-10.9-2.4C29.1,62.2,32.2,56.2,36.2,50.7L36.2,50.7z
		 M49.5,36.8c0.6,0.6,2.6,2.5,6,4.7c-3.8,3.7-7.1,7.7-9.9,12c-4.5-2-7.4-3.7-8.4-4.3C40.8,44.5,44.9,40.4,49.5,36.8L49.5,36.8z
		 M142.3,49.2c-0.8,0.5-3.7,2.3-8.5,4.3c-2.7-4.2-5.9-8.1-9.6-11.8c3.9-2.4,6-4.4,6.2-4.6l0,0C134.8,40.6,138.8,44.7,142.3,49.2
		L142.3,49.2z M152.6,68.8c-1.3,0.3-5.2,1.2-11.1,2.3c-1.4-5.2-3.4-10.1-6.1-14.7c-0.2-0.4-0.5-0.8-0.7-1.2c5-2.2,8-4,8.6-4.4
		C147.3,56.1,150.5,62.2,152.6,68.8L152.6,68.8z M141.8,107.3c1.3-5.3,2-10.9,2.1-16.7h12c-0.1,6.7-1.3,13.2-3.2,19.3
		C151.4,109.6,147.6,108.6,141.8,107.3L141.8,107.3z M135.5,123.2c2.5-4.4,4.4-9.1,5.8-14c5.7,1.2,9.4,2.2,10.7,2.6
		c-2.2,6.1-5.2,11.8-9,16.9c-1.1-0.7-3.9-2.3-8.3-4.2C135,124,135.2,123.6,135.5,123.2L135.5,123.2z M129.1,122.2
		c-1.6-0.6-3.5-1.2-5.5-1.8c0.2-0.5,0.4-1,0.7-1.4c1.8-3.9,3.2-8,4.2-12.1c4.1,0.6,7.8,1.3,11,1.9c-1.5,5.3-3.7,10.3-6.5,15
		C131.8,123.3,130.5,122.7,129.1,122.2L129.1,122.2z M117.6,134.6c-0.7-0.3-1.3-0.6-2-0.9c2.8-3.7,5.2-7.6,7.2-11.6
		c2.1,0.6,4,1.3,5.6,1.9c1.3,0.5,2.5,0.9,3.6,1.4c-2.7,4.1-5.9,8-9.7,11.5C120.9,136.1,119.4,135.3,117.6,134.6L117.6,134.6z
		 M105.5,145.3c1.6-1.6,3.3-3.3,4.9-5.1c1.4-1.6,2.8-3.2,4-4.9c2.4,1,4.6,2,6.4,3c-1.6,1.4-3.3,2.8-5,4.1c-2.3,1.7-4.6,3.2-6.8,4.6
		C108,146.4,106.8,145.8,105.5,145.3L105.5,145.3z M109.1,149.1c1.6,0.9,2.9,1.8,3.8,2.5c-5.4,2-11.2,3.4-17.2,3.9
		C99.2,154.2,104,152.1,109.1,149.1L109.1,149.1z M95.9,153.4c2.3-1.7,5.1-4,8.1-6.7c1.1,0.4,2.2,0.9,3.2,1.4
		C102.9,150.5,99,152.2,95.9,153.4L95.9,153.4z M69.6,148.7c5.4,3.2,10.5,5.5,14.1,6.8c-6.3-0.6-12.4-2.1-18.1-4.3
		C66.4,150.6,67.7,149.6,69.6,148.7L69.6,148.7z M60.2,137.3c1.3-0.7,2.9-1.4,4.6-2.1c1.3,1.7,2.7,3.4,4.3,5.1
		c1.5,1.6,2.9,3.1,4.3,4.5c-1.4,0.5-2.6,1-3.6,1.5c0,0-0.1,0-0.1,0.1c-2-1.2-4-2.6-6-4.1c-1.7-1.3-3.4-2.7-5.1-4.2
		C59,137.9,59.6,137.6,60.2,137.3L60.2,137.3z M39.9,108.7c1.2-0.2,2.4-0.5,3.7-0.7c2.1-0.4,4.6-0.8,7.2-1.2c1,4.2,2.5,8.4,4.3,12.5
		c0.2,0.3,0.3,0.7,0.5,1c-2.3,0.7-4.3,1.4-6,2c-1.1,0.4-2.2,0.8-3.2,1.3C43.8,119.2,41.5,114.3,39.9,108.7L39.9,108.7z M38,109.1
		c1.4,5,3.4,9.7,5.9,14.1c0.2,0.4,0.4,0.8,0.7,1.2c-4.2,1.9-6.9,3.5-8.1,4.3c-3.8-5.2-6.8-10.9-9-17C29,111.2,32.6,110.2,38,109.1
		L38,109.1z M35.5,90.7c0.1,5.8,0.8,11.3,2.1,16.6c-5.5,1.2-9.2,2.2-10.7,2.6c-2-6.1-3.1-12.5-3.2-19.2H35.5z M42.9,74
		c2.2,0.4,4.7,0.7,7.5,1.1c-1,4.5-1.5,9.1-1.5,13.7H37.4c0.1-5.4,0.7-10.5,1.8-15.4C40.3,73.6,41.6,73.8,42.9,74L42.9,74z
		 M50.3,57.3c1.7,0.6,3.5,1.2,5.6,1.9c-0.2,0.5-0.5,1-0.7,1.5c-1.9,4.1-3.3,8.3-4.4,12.6c-4.2-0.5-8-1.1-11.1-1.7
		c1.5-5.6,3.7-10.8,6.7-15.7C47.6,56.3,48.9,56.8,50.3,57.3L50.3,57.3z M59.4,43.7c1.3,0.7,2.8,1.4,4.5,2.1
		c-2.8,3.8-5.2,7.7-7.2,11.6c-2.1-0.6-4-1.3-5.7-1.9c-1.3-0.5-2.5-0.9-3.6-1.4c2.7-4.2,6-8.1,9.8-11.7
		C57.9,42.9,58.7,43.3,59.4,43.7L59.4,43.7z M63.6,37.1c2-1.5,4-2.8,5.9-4c1.1,0.5,2.5,1.1,4,1.6c-1.5,1.5-3,3-4.5,4.7
		c-1.4,1.6-2.7,3.2-4,4.8c-1.8-0.7-3.3-1.4-4.7-2.2c-0.6-0.3-1.2-0.6-1.7-0.9C60.2,39.8,61.9,38.4,63.6,37.1L63.6,37.1z M67.5,32.1
		c-1.7,1.1-3.3,2.2-5,3.5c-1.9,1.5-3.8,3-5.5,4.6c-3.2-2-5.2-3.7-5.9-4.5c3.6-2.6,7.5-4.9,11.6-6.8C63.3,29.4,64.9,30.7,67.5,32.1
		L67.5,32.1z M69.4,31c-2.2-1.1-3.8-2.2-4.7-2.9c6.5-2.7,13.6-4.4,21-4.8C82,24.5,75.9,27,69.4,31L69.4,31z M110.2,31
		c-6.6-4-12.7-6.5-16.4-7.8c7.6,0.5,14.8,2.2,21.5,5C114.5,28.8,112.7,29.9,110.2,31L110.2,31z M116.9,35.6
		c-1.6-1.2-3.2-2.3-4.8-3.4c3.1-1.5,4.7-2.7,4.8-2.8l0.1-0.1c0.1-0.1,0.2-0.1,0.3-0.2c4.1,1.9,7.9,4.2,11.5,6.8
		c-0.6,0.6-2.7,2.4-6.1,4.4C120.9,38.7,119,37.1,116.9,35.6L116.9,35.6z M119.3,42.3c-1.4,0.7-3,1.4-4.7,2.1c-1.3-1.7-2.7-3.4-4.1-5
		c-1.5-1.7-3-3.2-4.4-4.7c1.3-0.4,2.5-0.9,3.5-1.3c0.2-0.1,0.4-0.2,0.6-0.2c1.9,1.2,3.8,2.5,5.8,4c1.7,1.3,3.4,2.7,5.1,4.3
		C120.4,41.7,119.9,42,119.3,42.3L119.3,42.3z M128.6,73.1c-1-4.3-2.5-8.4-4.3-12.5c-0.2-0.4-0.4-0.9-0.6-1.3c2-0.6,3.8-1.2,5.5-1.8
		c1.4-0.5,2.7-1,3.8-1.5c2.7,4.5,5.1,9.7,6.7,15.5C136.5,71.9,132.8,72.5,128.6,73.1L128.6,73.1z M142,88.8h-11.4
		c-0.1-4.7-0.6-9.3-1.6-13.9c4.2-0.6,7.9-1.1,11.1-1.7C141.3,78,142,83.1,142,88.8L142,88.8z M130.6,90.6H142
		c-0.1,5.7-0.8,11.2-2,16.3c-1.4-0.3-2.9-0.6-4.5-0.9c-2-0.4-4.2-0.7-6.6-1.1C130,100.3,130.6,95.5,130.6,90.6L130.6,90.6z
		 M116.3,103.5c0.6-4.3,1-8.5,1-12.8h11.4c-0.1,5-0.7,9.7-1.7,14.1C123.8,104.3,120.2,103.8,116.3,103.5L116.3,103.5z M113,117.8
		c0-0.1,0.1-0.3,0.1-0.4c1.2-4,2.2-8,2.9-12c3.8,0.4,7.4,0.8,10.6,1.3c-1.2,4.8-2.9,9.2-4.9,13.3C119.1,119.1,116.2,118.4,113,117.8
		L113,117.8z M107.8,131.1c1.8-3.8,3.3-7.6,4.6-11.6c3.1,0.6,5.9,1.3,8.5,2c-2.2,4.3-4.6,8.1-7.1,11.4
		C111.8,132.3,109.8,131.7,107.8,131.1L107.8,131.1z M99.7,145.3c0.8,0.2,1.5,0.4,2.3,0.6c-2.5,2.3-4.8,4.2-6.8,5.7
		C96.5,149.9,98.1,147.8,99.7,145.3L99.7,145.3z M83.3,153.3c-3.2-1.3-7.3-3.1-11.7-5.7c1-0.4,2.1-0.9,3.3-1.3
		C78,149.3,80.9,151.6,83.3,153.3L83.3,153.3z M80.1,145c1.9,3,3.7,5.4,5.2,7.4c-2.3-1.6-5.1-3.9-8.2-6.7
		C78,145.5,79,145.2,80.1,145L80.1,145z M67.4,119.4c1.3,3.9,2.9,7.7,4.8,11.6c-2.5,0.6-4.7,1.3-6.7,2c-2.5-3.4-5-7.2-7.2-11.5
		C61,120.7,64.1,120,67.4,119.4L67.4,119.4z M63.6,105.2c0.7,3.6,1.6,7.3,2.7,10.9c0.2,0.5,0.3,0.9,0.5,1.4
		c-3.4,0.6-6.5,1.4-9.3,2.2c-1.9-4-3.5-8.4-4.7-13.2C56,106.1,59.7,105.6,63.6,105.2L63.6,105.2z M50.7,90.7h11.5
		c0.1,4.2,0.4,8.4,1.1,12.7c-4,0.4-7.7,0.8-11,1.3C51.3,100.3,50.8,95.6,50.7,90.7L50.7,90.7z M63.3,76.4c-0.7,4.2-1.1,8.3-1.1,12.4
		H50.7c0.1-4.7,0.6-9.2,1.6-13.5C55.6,75.7,59.2,76.1,63.3,76.4L63.3,76.4z M66.9,61.9c-0.2,0.6-0.4,1.1-0.6,1.7
		c-1.1,3.7-2.1,7.3-2.7,10.9c-3.9-0.3-7.6-0.7-10.9-1.1c1.2-5,3-9.6,5-13.7C60.5,60.5,63.5,61.3,66.9,61.9L66.9,61.9z M72.3,48.6
		c-1.8,3.8-3.4,7.7-4.8,11.5c-3.3-0.6-6.3-1.4-9-2.1c2.2-4.3,4.7-8.1,7.2-11.5C67.7,47.3,69.9,48,72.3,48.6L72.3,48.6z M75.1,33.3
		c-1.3-0.4-2.5-0.9-3.6-1.4c4.6-2.7,8.9-4.6,12.2-5.9C81.2,27.8,78.3,30.2,75.1,33.3L75.1,33.3z M85.2,27.2
		c-1.4,1.9-3.2,4.4-5.1,7.4c-1-0.2-2-0.4-3-0.7C80.2,31.1,83,28.8,85.2,27.2L85.2,27.2z M95.9,26c3.3,1.3,7.6,3.2,12.2,5.9
		c-1.1,0.4-2.3,0.9-3.6,1.3C101.3,30.2,98.3,27.8,95.9,26L95.9,26z M99.9,34.4c-1.7-2.6-3.3-4.8-4.7-6.6c2.1,1.6,4.5,3.6,7.2,6
		C101.6,34.1,100.8,34.3,99.9,34.4L99.9,34.4z M112.4,60c-1.3-3.9-2.8-7.7-4.6-11.5c2.2-0.6,4.2-1.2,6-1.9c2.5,3.3,4.9,7.1,7.1,11.4
		C118.4,58.7,115.5,59.4,112.4,60L112.4,60z M116,74.4c-0.7-4.1-1.7-8.2-2.9-12.3c0-0.1-0.1-0.2-0.1-0.3c3.2-0.6,6.1-1.4,8.8-2.1
		c2,4.1,3.7,8.7,4.9,13.6C123.4,73.7,119.8,74.1,116,74.4L116,74.4z M104,88.8c0-4-0.2-7.8-0.5-11.6c3.8-0.2,7.5-0.4,11-0.7
		c0.6,3.9,0.9,8,1,12.3L104,88.8L104,88.8z M103.5,102.5c0.3-3.8,0.5-7.8,0.5-11.8h11.4c0,4.4-0.4,8.6-1,12.6
		C111,103,107.3,102.7,103.5,102.5L103.5,102.5z M101.9,116.1c0.6-3.7,1.1-7.7,1.4-11.7c3.7,0.2,7.3,0.5,10.7,0.8
		c-0.8,4.3-1.8,8.4-3,12.3C108.2,116.9,105.2,116.4,101.9,116.1L101.9,116.1z M99.3,129.5c0.8-3.5,1.6-7.4,2.3-11.5
		c3.1,0.3,6.1,0.7,8.9,1.2c-1.4,4.2-3,8-4.6,11.4C103.7,130.2,101.6,129.8,99.3,129.5L99.3,129.5z M95.8,142.6
		c0.5-1.7,1.1-3.5,1.6-5.4c0.5-1.8,1-3.8,1.5-5.9c2.2,0.3,4.2,0.6,6.2,1.1c-0.9,1.9-1.9,3.6-2.8,5.2c-1.1,2-2.3,3.9-3.4,5.6
		C97.9,143,96.8,142.8,95.8,142.6L95.8,142.6z M95.2,144.5c0.9,0.1,1.7,0.3,2.5,0.4c-1.9,2.8-3.6,5.1-5.1,6.8
		C93.4,149.8,94.3,147.3,95.2,144.5L95.2,144.5z M84.6,144.4c0.9,2.8,1.7,5.2,2.3,7.2c-1.4-1.8-3-4.1-4.8-6.9
		C82.9,144.5,83.7,144.4,84.6,144.4L84.6,144.4z M80.9,131.3c0.4,1.7,0.8,3.3,1.2,4.8c0.6,2.3,1.2,4.5,1.8,6.5
		c-1.1,0.1-2.1,0.3-3,0.4c-1.2-1.9-2.5-4-3.7-6.3c-0.8-1.4-1.5-2.8-2.3-4.4C76.8,131.9,78.8,131.5,80.9,131.3L80.9,131.3z
		 M78.1,117.9c0.7,4.1,1.5,8,2.4,11.5c-2.3,0.3-4.4,0.7-6.4,1.1c-1.7-3.5-3.3-7.3-4.8-11.5C72.1,118.6,75,118.2,78.1,117.9
		L78.1,117.9z M76.2,104.3c0.4,4,0.9,8,1.6,11.7c-3.2,0.3-6.3,0.7-9.1,1.2c-1.3-3.8-2.4-7.9-3.2-12.2
		C68.9,104.8,72.5,104.5,76.2,104.3L76.2,104.3z M75.5,90.7c0,4,0.2,7.9,0.6,11.8c-3.8,0.2-7.5,0.4-10.9,0.7
		c-0.7-4-1.1-8.2-1.2-12.5H75.5z M76.1,77.2c-0.3,3.8-0.5,7.7-0.6,11.6H64c0.1-4.2,0.5-8.3,1.1-12.2C68.6,76.8,72.2,77.1,76.1,77.2
		L76.1,77.2z M77.8,63.5c-0.6,3.8-1.2,7.7-1.6,11.8c-3.8-0.2-7.4-0.4-10.7-0.6c0.8-4.3,2-8.5,3.3-12.4
		C71.6,62.8,74.6,63.2,77.8,63.5L77.8,63.5z M80.5,50.2c-0.8,3.5-1.6,7.4-2.4,11.5c-3.1-0.3-6-0.7-8.7-1.2c1.5-4.1,3.1-8,4.8-11.4
		C76.2,49.5,78.3,49.9,80.5,50.2L80.5,50.2z M84,37.1c-0.6,2-1.2,4.2-1.8,6.5c-0.4,1.5-0.8,3.1-1.2,4.8c-2.1-0.3-4.1-0.6-5.9-1
		c0.7-1.5,1.5-2.9,2.2-4.2c1.3-2.3,2.6-4.5,3.8-6.5C82,36.8,83,37,84,37.1L84,37.1z M84.6,35.2c-0.8-0.1-1.6-0.2-2.4-0.3
		c1.8-2.7,3.4-5,4.7-6.8C86.2,30,85.4,32.4,84.6,35.2L84.6,35.2z M95.1,35.2c-1-3-1.9-5.6-2.6-7.6c1.5,1.8,3.4,4.3,5.4,7.2
		C97,35,96.1,35.1,95.1,35.2L95.1,35.2z M98.8,48.3c-0.5-2.1-1-4.1-1.5-5.9c-0.5-1.9-1-3.7-1.5-5.4c1.2-0.1,2.3-0.3,3.3-0.5
		c1,1.6,2.1,3.4,3.2,5.3c0.9,1.7,1.9,3.5,2.9,5.4C103.1,47.7,101,48,98.8,48.3L98.8,48.3z M101.5,61.7c-0.7-4.1-1.5-8-2.3-11.5
		c2.4-0.3,4.7-0.7,6.8-1.2c1.6,3.4,3.2,7.2,4.6,11.4C107.7,60.9,104.7,61.3,101.5,61.7L101.5,61.7z M101.8,63.5
		c3.3-0.3,6.4-0.8,9.4-1.3c1.2,3.9,2.2,8,3,12.4c-3.5,0.3-7.1,0.5-10.9,0.7C102.9,71.2,102.4,67.3,101.8,63.5L101.8,63.5z
		 M90.7,75.6V64.1c3.2,0,6.3-0.2,9.2-0.4c0.6,3.7,1.1,7.6,1.5,11.7C97.9,75.5,94.4,75.6,90.7,75.6L90.7,75.6z M90.7,88.8V77.5
		c3.7,0,7.4-0.1,10.9-0.2c0.3,3.7,0.5,7.6,0.5,11.5H90.7z M90.7,102.1V90.6h11.4c0,4-0.2,7.9-0.5,11.7
		C98.1,102.2,94.5,102.1,90.7,102.1L90.7,102.1z M90.7,115.5V104c3.7,0,7.3,0.1,10.8,0.3c-0.4,4.1-0.9,8-1.4,11.7
		C97.1,115.7,93.9,115.5,90.7,115.5L90.7,115.5z M90.7,128.9v-11.5c3.2,0,6.2,0.2,9.1,0.4c-0.7,4.1-1.5,8-2.3,11.5
		C95.2,129,93,128.9,90.7,128.9L90.7,128.9z M90.7,144.1c0.9,0,1.8,0.1,2.6,0.1c-1,3-1.9,5.5-2.6,7.4V144.1z M88.8,144.1v7.2
		c-0.7-1.9-1.5-4.3-2.3-7.1C87.2,144.1,88,144.1,88.8,144.1L88.8,144.1z M88.8,130.8v11.5c-1,0-2,0.1-2.9,0.1
		c-0.6-2.1-1.3-4.4-1.9-6.8c-0.4-1.4-0.8-2.9-1.2-4.5C84.7,130.9,86.7,130.8,88.8,130.8L88.8,130.8z M88.8,117.4v11.5
		c-2.2,0-4.4,0.1-6.4,0.3c-0.8-3.5-1.6-7.4-2.4-11.5C82.8,117.5,85.7,117.4,88.8,117.4L88.8,117.4z M88.8,104v11.5
		c-3.2,0-6.2,0.2-9.1,0.4c-0.6-3.7-1.2-7.6-1.6-11.6C81.5,104.1,85.1,104,88.8,104L88.8,104z M88.8,90.7v11.5
		c-3.8,0-7.4,0.1-10.9,0.2c-0.4-3.8-0.6-7.8-0.6-11.7H88.8z M88.8,77.5v11.3H77.4c0-3.9,0.2-7.7,0.6-11.5
		C81.4,77.4,85,77.5,88.8,77.5L88.8,77.5z M88.8,64.1v11.5c-3.7,0-7.3-0.1-10.7-0.2c0.4-4,1-8,1.6-11.7
		C82.6,63.9,85.6,64.1,88.8,64.1L88.8,64.1z M88.8,50.7v11.5c-3,0-6-0.2-8.8-0.4c0.7-4.1,1.5-7.9,2.4-11.5
		C84.4,50.6,86.6,50.7,88.8,50.7L88.8,50.7z M88.8,37.4v11.5c-2.1,0-4.1-0.1-6-0.3c0.4-1.6,0.8-3.1,1.1-4.5c0.6-2.4,1.3-4.7,1.9-6.8
		C86.8,37.3,87.8,37.4,88.8,37.4L88.8,37.4z M88.8,35.5c-0.8,0-1.6,0-2.3-0.1c0.9-2.8,1.7-5.2,2.3-7.2V35.5z M90.7,35.5v-7.6
		c0.7,1.9,1.6,4.5,2.5,7.4C92.4,35.4,91.5,35.5,90.7,35.5L90.7,35.5z M90.7,50.7c2.3,0,4.5-0.2,6.6-0.4c0.8,3.5,1.6,7.3,2.3,11.5
		c-2.9,0.2-5.8,0.4-8.9,0.4C90.7,62.2,90.7,50.7,90.7,50.7z M95.4,42.9c0.5,1.7,1,3.6,1.4,5.6c-2,0.2-4,0.3-6.2,0.3V37.3
		c1.1,0,2.1-0.1,3.1-0.2C94.3,39,94.9,40.9,95.4,42.9L95.4,42.9z M93.9,142.4c-1-0.1-2.1-0.2-3.2-0.2v-11.5c2.2,0,4.3,0.2,6.3,0.4
		c-0.5,2-1,3.9-1.4,5.6C95,138.7,94.4,140.6,93.9,142.4L93.9,142.4z M117.3,88.8c0-4.1-0.4-8.3-1-12.5c3.8-0.3,7.5-0.7,10.8-1.2
		c0.9,4.3,1.5,8.8,1.6,13.6h-11.4V88.8z M109,40.6c1.2,1.4,2.4,2.8,3.7,4.4c-1.7,0.6-3.6,1.2-5.7,1.7c-1-2-2-4-3.1-5.9
		c-1-1.7-1.9-3.3-2.9-4.7c1-0.2,2-0.5,2.9-0.8C105.6,37,107.3,38.7,109,40.6L109,40.6z M75.6,35.4c1.1,0.3,2.3,0.6,3.5,0.9
		c-1.1,1.8-2.3,3.8-3.5,5.9c-0.8,1.5-1.7,3.1-2.4,4.7c-2.3-0.6-4.4-1.2-6.2-1.9c1.2-1.5,2.4-2.9,3.5-4.2
		C72.1,38.8,73.9,37,75.6,35.4L75.6,35.4z M48.8,90.7c0.1,4.8,0.6,9.6,1.6,14.3c-2.7,0.4-5.1,0.8-7.2,1.2c-1.3,0.2-2.6,0.5-3.8,0.7
		c-1.2-4.9-2-10.3-2.1-16.2H48.8z M70.4,139.1c-1.2-1.4-2.5-2.9-3.8-4.5c1.9-0.7,4.1-1.3,6.4-1.9c0.8,1.6,1.7,3.3,2.6,4.9
		c1.1,2.1,2.3,4,3.4,5.8c-1.3,0.3-2.5,0.6-3.6,0.9C73.8,142.7,72.1,140.9,70.4,139.1L70.4,139.1z M103.5,144.5
		c-0.9-0.3-1.8-0.6-2.7-0.8c1-1.6,2-3.2,3.1-5.1c1.1-1.9,2.1-3.8,3.1-5.8c2,0.5,3.9,1.1,5.7,1.7c-1.2,1.5-2.4,3-3.5,4.3
		C107.2,140.9,105.3,142.8,103.5,144.5L103.5,144.5z M143.9,88.8c-0.1-5.5-0.7-10.8-1.9-15.9c6-1.1,10-2,11.1-2.3
		c1.7,5.8,2.7,11.9,2.7,18.2H143.9z M132,54.3c-1.1,0.4-2.2,0.9-3.5,1.4c-1.7,0.6-3.6,1.2-5.7,1.9c-2-4-4.4-7.8-7.1-11.5
		c1.6-0.7,3.1-1.3,4.4-2c0.8-0.4,1.6-0.8,2.3-1.2C125.8,46,129.1,49.8,132,54.3L132,54.3z M26.4,70.6c1.1,0.3,4.8,1.3,11,2.5
		c-1.2,5-1.8,10.3-1.9,15.8H23.7C23.7,82.5,24.7,76.4,26.4,70.6L26.4,70.6z M47.4,125.2c0.9-0.4,1.8-0.7,2.8-1.1
		c1.8-0.7,3.9-1.4,6.2-2.1c2,4,4.4,8,7.2,11.7c-1.6,0.6-3,1.3-4.3,1.9c-0.8,0.4-1.5,0.8-2.3,1.2C53.7,133.6,50.4,129.7,47.4,125.2
		L47.4,125.2z M51.1,143.2c0.9-0.8,2.8-2.3,5.7-4c1.8,1.6,3.7,3.2,5.7,4.7c1.8,1.3,3.5,2.5,5.2,3.6c-2.1,1.2-3.5,2.3-4.1,2.9
		C59.2,148.4,55,146,51.1,143.2L51.1,143.2z M152.2,63c-3.4-8.1-8.3-15.4-14.5-21.6c-6.2-6.2-13.5-11.1-21.5-14.6
		c-8.4-3.5-17.2-5.3-26.4-5.3s-18,1.8-26.4,5.3c-8.1,3.4-15.3,8.3-21.5,14.6C35.7,47.6,30.8,54.9,27.4,63
		c-3.5,8.4-5.3,17.3-5.3,26.5s1.8,18.1,5.3,26.5c3.4,8.1,8.3,15.4,14.5,21.6s13.5,11.1,21.5,14.6c8.4,3.5,17.2,5.3,26.4,5.3
		s18-1.8,26.4-5.3c8.1-3.4,15.3-8.3,21.5-14.6c6.2-6.2,11.1-13.5,14.5-21.6c3.5-8.4,5.3-17.3,5.3-26.5
		C157.5,80.2,155.7,71.3,152.2,63L152.2,63z"/>
	<path class="st2" d="M63.1,89.4c0-10.8,11.9-19.5,26.7-19.5c14.7,0,26.6,8.7,26.6,19.5c0,10.7-11.9,19.5-26.6,19.5
		S63.1,100.2,63.1,89.4"/>
	<path class="st3" d="M63.1,89.4c0-10.8,11.9-19.5,26.7-19.5c14.7,0,26.6,8.7,26.6,19.5c0,10.7-11.9,19.5-26.6,19.5
		S63.1,100.2,63.1,89.4L63.1,89.4z"/>
	<path class="st4" d="M75.3,78.8l-5.2,20.9h3.1l2.7-9.7h7l0.7-3h-7.1l1.9-7.8h19.5c0,0-2.8,1.9-4.8,9.6C91,97,93.2,98.9,93.2,98.9
		s1.3,2.4,3.6,2.5c1.9,0,3.8-1,5-1.9c1.2-0.8-1.2,6.7-1.2,6.7l3.6-1.2l3.6-17.7l-6.9-0.2l-0.5,3.1h3.7c0,0-0.9,4.2-1.6,5.7
		c-0.7,1.4-2.5,3.7-4.5,3.6c-2.1-0.1-2.9-2.1-2.9-4.4c0-1.1,1.4-7.2,1.6-7.8c0.6-1.3,1.9-5.8,3.8-7.2c2.2-1.6,3.6-1.4,5-0.5
		c1.6,1.1,1.3,2.7,1.3,2.7l2.9,0.1c0,0-0.3-3.2-1.2-4c-1.8-1.8-4.1-1.8-4.1-1.8H69.6l-2.1,2.3h7.8V78.8z"/>
	<path class="st4" d="M75,98c0-0.9,0.6-1.7,1.4-1.7s1.4,0.8,1.4,1.7c0,0.9-0.6,1.7-1.4,1.7C75.6,99.8,75,99,75,98"/>
	<path class="st4" d="M87.7,98.2c0-1,0.6-1.7,1.4-1.7c0.8,0,1.4,0.8,1.4,1.7c0,1-0.6,1.7-1.4,1.7C88.3,99.9,87.7,99.2,87.7,98.2"/>
	<path class="st4" d="M106.3,98.2c0-1,0.6-1.7,1.4-1.7s1.4,0.8,1.4,1.7c0,1-0.6,1.7-1.4,1.7C106.9,99.9,106.3,99.2,106.3,98.2"/>
	<path class="st4" d="M86.4,81.2h3.2l-4.1,19.2h-3.3L86.4,81.2z"/>
	<rect x="173" y="56.8" class="st5" width="6.7" height="33.1"/>
	<path class="st5" d="M183.8,89.9V56.8h6.5l13.5,22.1V56.8h6.2v33.1h-6.7L190,68.3v21.6H183.8z"/>
	<path class="st5" d="M222.1,89.9V62.4h-9.8v-5.6h26.2v5.6h-9.8v27.5H222.1z"/>
	<path class="st5" d="M240.4,89.9V56.8h24.5v5.6h-17.8v7.3h16.6v5.6h-16.6v9h18.4v5.6H240.4z"/>
	<path class="st5" d="M275.5,70.8h4.9c3.2,0,5.2-0.1,6-0.4c0.8-0.3,1.4-0.7,1.9-1.4c0.4-0.7,0.7-1.5,0.7-2.5c0-1.1-0.3-2-0.9-2.7
		c-0.6-0.7-1.4-1.1-2.5-1.3c-0.5-0.1-2.2-0.1-4.9-0.1h-5.2C275.5,62.4,275.5,70.8,275.5,70.8z M268.9,89.9V56.8h14
		c3.5,0,6.1,0.3,7.7,0.9c1.6,0.6,2.9,1.7,3.8,3.2c1,1.5,1.4,3.3,1.4,5.2c0,2.5-0.7,4.5-2.2,6.1c-1.4,1.6-3.6,2.6-6.5,3.1
		c1.4,0.8,2.6,1.8,3.6,2.8c0.9,1,2.2,2.8,3.8,5.4l4,6.5h-8l-4.8-7.2c-1.7-2.6-2.9-4.2-3.5-4.9c-0.6-0.7-1.3-1.1-2-1.4
		c-0.7-0.3-1.8-0.4-3.4-0.4h-1.3v13.8L268.9,89.9L268.9,89.9z"/>
	<path class="st5" d="M299.8,89.9V56.8h6.5l13.5,22.1V56.8h6.2v33.1h-6.7L306,68.3v21.6H299.8z"/>
	<path class="st5" d="M348.2,76.8l-4.5-12.3l-4.5,12.3H348.2z M360.5,89.9h-7.2l-2.9-7.5h-13.2l-2.7,7.5h-7.1l12.9-33.1h7
		L360.5,89.9z"/>
	<path class="st5" d="M365.7,89.9V62.4h-9.8v-5.6h26.2v5.6h-9.8v27.5H365.7z"/>
	<rect x="383.8" y="56.8" class="st5" width="6.7" height="33.1"/>
	<path class="st5" d="M400,73.3c0,3.7,0.9,6.6,2.6,8.5c1.7,1.9,3.9,2.9,6.6,2.9s4.8-1,6.5-2.9s2.5-4.8,2.5-8.6
		c0-3.8-0.8-6.6-2.5-8.5s-3.9-2.8-6.6-2.8c-2.7,0-5,0.9-6.6,2.8C400.9,66.6,400,69.5,400,73.3 M393.1,73.5c0-3.4,0.5-6.2,1.5-8.5
		c0.8-1.7,1.8-3.2,3.1-4.5s2.7-2.3,4.3-3c2.1-0.9,4.4-1.3,7.1-1.3c4.9,0,8.8,1.5,11.7,4.5c2.9,3,4.4,7.2,4.4,12.6s-1.4,9.5-4.3,12.5
		s-6.8,4.5-11.6,4.5c-4.9,0-8.8-1.5-11.7-4.5C394.6,82.9,393.1,78.8,393.1,73.5"/>
	<path class="st5" d="M428.1,89.9V56.8h6.5l13.5,22.1V56.8h6.2v33.1h-6.7l-13.3-21.6v21.6H428.1z"/>
	<path class="st5" d="M476.4,76.8l-4.5-12.3l-4.5,12.3H476.4z M488.7,89.9h-7.2l-2.9-7.5h-13.2l-2.7,7.5h-7.1l12.9-33.1h7
		L488.7,89.9z"/>
	<path class="st5" d="M490.1,89.9V57h6.7v27.2h16.6v5.6L490.1,89.9L490.1,89.9z"/>
	<path class="st5" d="M515.7,89.9V56.8h24.5v5.6h-17.8v7.3H539v5.6h-16.6v9h18.4v5.6H515.7z"/>
	<path class="st5" d="M571.6,62.4v21.9h5c1.9,0,3.2-0.1,4-0.3c1.1-0.3,2-0.7,2.7-1.4c0.7-0.7,1.3-1.7,1.7-3.2s0.7-3.5,0.7-6.1
		s-0.2-4.5-0.7-5.9s-1.1-2.4-1.9-3.2s-1.8-1.3-3.1-1.6c-0.9-0.2-2.8-0.3-5.5-0.3h-2.9V62.4z M565,56.8h12.2c2.7,0,4.8,0.2,6.3,0.6
		c1.9,0.6,3.6,1.6,5,3.1s2.4,3.2,3.1,5.4c0.7,2.1,1.1,4.7,1.1,7.8c0,2.7-0.3,5.1-1,7c-0.8,2.4-2,4.4-3.5,5.9c-1.2,1.1-2.7,2-4.7,2.6
		c-1.5,0.5-3.4,0.7-5.9,0.7H565V56.8z"/>
	<path class="st5" d="M595.9,89.9V56.8h24.5v5.6h-17.8v7.3h16.6v5.6h-16.6v9H621v5.6H595.9z"/>
	<path class="st5" d="M173,45.9V22.5h16v4h-11.3v5.6h9.8v4h-9.8v10H173V45.9z"/>
	<path class="st5" d="M190.5,45.9V22.5h17.3v4h-12.6v5.2h11.7v4h-11.7v6.4h13.1v4h-17.8V45.9z"/>
	<path class="st5" d="M214.5,26.4v15.5h3.5c1.3,0,2.3-0.1,2.9-0.2c0.8-0.2,1.4-0.5,1.9-1s0.9-1.2,1.2-2.3c0.3-1,0.5-2.5,0.5-4.3
		s-0.2-3.2-0.5-4.2s-0.8-1.7-1.3-2.3c-0.6-0.5-1.3-0.9-2.2-1.1c-0.7-0.1-2-0.2-3.9-0.2h-2.1V26.4z M209.8,22.5h8.6
		c1.9,0,3.4,0.2,4.4,0.4c1.4,0.4,2.5,1.1,3.5,2.2c1,1,1.7,2.3,2.2,3.8s0.8,3.3,0.8,5.5c0,1.9-0.2,3.6-0.7,5
		c-0.6,1.7-1.4,3.1-2.5,4.1c-0.8,0.8-1.9,1.4-3.3,1.9c-1,0.3-2.4,0.5-4.2,0.5h-8.9L209.8,22.5L209.8,22.5z"/>
	<path class="st5" d="M230.9,45.9V22.5h17.3v4h-12.6v5.2h11.7v4h-11.7v6.4h13.1v4h-17.8V45.9z"/>
	<path class="st5" d="M255,32.4h3.5c2.3,0,3.7-0.1,4.2-0.3c0.6-0.2,1-0.5,1.3-1s0.5-1.1,0.5-1.8c0-0.8-0.2-1.4-0.6-1.9
		s-1-0.8-1.8-0.9c-0.4-0.1-1.5-0.1-3.4-0.1H255V32.4z M250.3,45.9V22.5h9.9c2.5,0,4.3,0.2,5.4,0.6c1.1,0.4,2,1.2,2.7,2.2
		c0.7,1.1,1,2.3,1,3.7c0,1.8-0.5,3.2-1.5,4.4c-1,1.1-2.6,1.9-4.6,2.2c1,0.6,1.9,1.3,2.5,2c0.7,0.7,1.6,2,2.7,3.8l2.9,4.6h-5.6
		l-3.4-5.1c-1.2-1.8-2-3-2.5-3.4c-0.4-0.5-0.9-0.8-1.4-1s-1.3-0.3-2.4-0.3h-1V46h-4.7V45.9z"/>
	<path class="st5" d="M283.8,36.6l-3.2-8.7l-3.2,8.7H283.8z M292.5,45.9h-5.1l-2-5.3h-9.3l-1.9,5.3h-5l9.1-23.4h5L292.5,45.9z"/>
	<path class="st5" d="M295.4,45.9V26.4h-6.9v-4H307v4h-6.9v19.5H295.4z"/>
	<rect x="307.4" y="22.5" class="st5" width="4.7" height="23.4"/>
	<path class="st5" d="M318.1,34.2c0,2.7,0.6,4.7,1.8,6c1.2,1.4,2.8,2.1,4.7,2.1s3.4-0.7,4.6-2c1.2-1.4,1.8-3.4,1.8-6.1
		c0-2.7-0.6-4.7-1.8-6s-2.7-2-4.7-2c-1.9,0-3.5,0.7-4.7,2C318.7,29.4,318.1,31.5,318.1,34.2 M313.3,34.3c0-2.4,0.3-4.4,1.1-6
		c0.5-1.2,1.3-2.3,2.2-3.2s1.9-1.7,3-2.1c1.5-0.6,3.1-0.9,5-0.9c3.4,0,6.2,1.1,8.3,3.2c2.1,2.1,3.1,5.1,3.1,8.9c0,3.8-1,6.7-3.1,8.9
		c-2,2.1-4.8,3.2-8.2,3.2c-3.5,0-6.2-1.1-8.3-3.2C314.3,41,313.3,38,313.3,34.3"/>
	<path class="st5" d="M337.2,45.9V22.5h4.6l9.6,15.7V22.5h4.4v23.4H351l-9.4-15.3v15.3H337.2z"/>
	<path class="st5" d="M197.1,136.1v-9.3h21.2v22c-2.1,2.3-5,4.2-8.9,6c-3.9,1.7-7.9,2.6-11.9,2.6c-5.1,0-9.5-1.2-13.3-3.6
		s-6.6-5.9-8.5-10.4c-1.9-4.5-2.9-9.4-2.9-14.7c0-5.7,1.1-10.9,3.2-15.3c2.1-4.5,5.2-7.9,9.3-10.3c3.1-1.8,7-2.7,11.7-2.7
		c6,0,10.8,1.4,14.2,4.3c3.4,2.9,5.6,6.8,6.6,11.9l-9.8,2.1c-0.7-2.7-2-4.9-3.9-6.4c-1.9-1.6-4.3-2.4-7.1-2.4
		c-4.3,0-7.7,1.5-10.2,4.6s-3.8,7.7-3.8,13.7c0,6.5,1.3,11.5,3.9,14.7c2.6,3.3,5.9,4.9,10.1,4.9c2.1,0,4.1-0.5,6.2-1.4
		c2.1-0.9,3.8-2,5.3-3.3v-7L197.1,136.1L197.1,136.1z"/>
	<path class="st5" d="M235,156.4v-23.2l-17.8-31.9h11.5l11.5,21.7l11.2-21.8h11.3l-17.9,32v23.1L235,156.4L235,156.4z"/>
	<path class="st5" d="M262.3,156.4v-55.2H277l8.8,37.6l8.7-37.6h14.7v55.2h-9.1V113l-9.7,43.4h-9.5l-9.6-43.4v43.4H262.3z"/>
	<path class="st5" d="M314.1,156.4v-55.2h9.6l19.9,36.8v-36.8h9.1v55.2h-9.9l-19.6-36v36H314.1z"/>
	<path class="st5" d="M383.8,134.5l-6.7-20.5l-6.6,20.5H383.8z M401.9,156.4h-10.7l-4.2-12.5h-19.5l-4,12.5h-10.4l19-55.2h10.4
		L401.9,156.4z"/>
	<path class="st5" d="M399.6,138.4l9.6-1.1c0.6,3.6,1.7,6.3,3.5,8s4.1,2.6,7.1,2.6c3.2,0,5.5-0.8,7.1-2.3s2.4-3.3,2.4-5.3
		c0-1.3-0.3-2.4-1-3.3s-1.9-1.7-3.5-2.4c-1.2-0.5-3.8-1.3-7.9-2.4c-5.3-1.5-9-3.3-11.1-5.5c-3-3-4.5-6.7-4.5-11.1
		c0-2.8,0.7-5.4,2.1-7.9c1.4-2.5,3.4-4.3,6.1-5.6c2.6-1.3,5.8-1.9,9.6-1.9c6.1,0,10.7,1.5,13.8,4.6c3.1,3,4.7,7.1,4.9,12.1l-9.8,0.5
		c-0.4-2.8-1.3-4.9-2.7-6.1c-1.4-1.2-3.5-1.9-6.2-1.9c-2.9,0-5.1,0.7-6.7,2c-1,0.8-1.6,2-1.6,3.4c0,1.3,0.5,2.4,1.5,3.3
		c1.2,1.2,4.3,2.4,9,3.7c4.8,1.3,8.3,2.6,10.6,4c2.3,1.4,4.1,3.2,5.4,5.6s1.9,5.3,1.9,8.8c0,3.2-0.8,6.1-2.3,8.9s-3.7,4.8-6.6,6.1
		c-2.8,1.3-6.4,2-10.6,2c-6.2,0-10.9-1.6-14.2-4.8C402.2,149.3,400.2,144.6,399.6,138.4"/>
	<path class="st5" d="M453.3,156.4v-45.8h-14.4v-9.3h38.7v9.3h-14.4v45.8H453.3z"/>
	<rect x="479.1" y="101.2" class="st5" width="9.8" height="55.2"/>
	<path class="st5" d="M524.4,143.1c1.3-1.7,2.2-3.7,2.8-6.1c0.6-2.4,0.9-5.1,0.9-8.2c0-6.4-1.2-11.1-3.7-14.3
		c-2.5-3.1-5.7-4.7-9.7-4.7s-7.3,1.6-9.7,4.7c-2.5,3.2-3.7,7.9-3.7,14.3c0,6.5,1.2,11.3,3.7,14.5s5.6,4.8,9.4,4.8
		c1.4,0,2.8-0.3,4-0.8c-2-1.5-4-2.6-6.1-3.5l2.8-6.4C518.4,138.7,521.5,140.6,524.4,143.1 M532.3,149.4c2.4,1.9,5,3.5,7.9,4.7
		l-3.6,7.9c-1.5-0.5-2.9-1.2-4.4-2.1c-0.3-0.2-2.5-1.8-6.5-4.9c-3.2,1.6-6.7,2.4-10.6,2.4c-7.5,0-13.3-2.5-17.6-7.5
		c-4.2-5-6.4-12-6.4-21s2.1-16,6.4-21c4.2-5,10-7.5,17.3-7.5c7.2,0,12.9,2.5,17.2,7.5c4.2,5,6.3,12,6.3,21c0,4.8-0.6,9-1.8,12.6
		C535.7,144.1,534.3,146.8,532.3,149.4"/>
	<path class="st5" d="M540.9,101.2h9.8v29.9c0,4.7,0.1,7.8,0.4,9.2c0.4,2.3,1.4,4.1,3,5.4c1.6,1.4,3.7,2,6.5,2s4.9-0.6,6.3-1.9
		s2.3-2.9,2.6-4.8c0.3-1.9,0.4-5,0.4-9.4v-30.5h9.8v29c0,6.6-0.3,11.3-0.8,14s-1.5,5-2.9,6.9c-1.4,1.9-3.3,3.4-5.7,4.5
		c-2.4,1.1-5.5,1.7-9.4,1.7c-4.7,0-8.2-0.6-10.6-1.8c-2.4-1.2-4.3-2.8-5.7-4.7c-1.4-1.9-2.3-4-2.8-6.1c-0.6-3.2-1-7.8-1-14v-29.4
		H540.9z"/>
	<path class="st5" d="M585,156.4v-55.2h36.1v9.3h-26.3v12.2h24.4v9.3h-24.4v15H622v9.3h-37V156.4z"/>
</g>
</svg>
