<?xml version="1.0" encoding="utf-8"?>
<!-- Generator: Adobe Illustrator 27.7.0, SVG Export Plug-In . SVG Version: 6.00 Build 0)  -->
<svg version="1.1" id="Layer_1" xmlns="http://www.w3.org/2000/svg" xmlns:xlink="http://www.w3.org/1999/xlink" x="0px" y="0px" width="40" height="40"
	 viewBox="0 0 40 40" style="enable-background:new 0 0 40 40;" xml:space="preserve">
<style type="text/css">
	.st0{opacity:0.25;fill:#D40011;enable-background:new    ;}
	.st1{enable-background:new    ;}
	.st2{fill:#D40011;}
</style>
<path class="st0" d="M20,39.5c10.6,0,19.5-8.8,19.5-19.5C39.5,9.4,30.6,0.5,20,0.5S0.5,9.4,0.5,20S9.4,39.5,20,39.5z"/>
<g class="st1">
	<path class="st2" d="M8.12,26.95c-0.16,0-0.27-0.1-0.27-0.27V18.4c0-0.68,0.08-1.44,0.14-1.73c0.02-0.16-0.04-0.25-0.21-0.25
		c-0.06,0-0.25,0.06-0.33,0.1l-1.34,0.51c-0.16,0.06-0.29,0.02-0.35-0.14l-0.84-2.26c-0.06-0.16-0.02-0.29,0.14-0.35l5.34-2.06
		c0.14-0.06,0.25-0.04,0.37,0.06l0.14,0.12c0.12,0.08,0.16,0.19,0.16,0.33v13.93c0,0.17-0.1,0.27-0.27,0.27H8.12z"/>
	<path class="st2" d="M15.13,12.72c1.27-0.41,2.34-0.58,3.41-0.58c3.1,0,4.97,1.58,4.97,4.28c0,1.54-0.8,2.59-2.51,3.66l-3.1,1.91
		c-0.7,0.43-1.07,1.29-1.07,2.12H23c0.16,0,0.27,0.1,0.27,0.27v2.3c0,0.17-0.1,0.27-0.27,0.27h-9.19c-0.16,0-0.27-0.1-0.27-0.27
		v-1.25c0-2.9,0.92-4.79,2.86-5.98l3.02-1.89c0.56-0.33,0.8-0.7,0.8-1.13c0-0.86-0.62-1.38-1.69-1.38c-0.84,0-1.64,0.14-2.45,0.41
		l-1.36,0.43c-0.16,0.06-0.27,0-0.33-0.16l-0.76-2.24c-0.06-0.16,0-0.27,0.16-0.33L15.13,12.72z"/>
	<path class="st2" d="M29.05,21.06c0.1,0,0.16,0.06,0.16,0.16v1.35c0,0.1-0.06,0.16-0.16,0.16h-1.36v2.18
		c0,0.31,0.12,0.49,0.31,0.49c0.11,0,0.2-0.01,0.3-0.05c0.1-0.04,0.17-0.02,0.22,0.07l0.56,1.15c0.04,0.08,0.02,0.17-0.05,0.22
		c-0.29,0.19-0.67,0.29-1.03,0.29c-1.39,0-2.21-0.8-2.21-2.17v-2.18h-0.62c-0.1,0-0.16-0.06-0.16-0.16v-1.35
		c0-0.1,0.06-0.16,0.16-0.16h0.62v-1.31c0-0.08,0.04-0.14,0.13-0.18l1.58-0.53c0.11-0.04,0.18,0.01,0.18,0.13v1.88H29.05z"/>
	<path class="st2" d="M32.25,19.68c0,0.65-0.08,1.06-0.3,1.51c-0.07,0.14,0,0.28,0.2,0.16c0.4-0.28,0.82-0.42,1.29-0.42
		c1.42,0,2.28,0.81,2.28,2.22v3.65c0,0.1-0.06,0.16-0.16,0.16h-1.59c-0.1,0-0.16-0.06-0.16-0.16v-3.41c0-0.49-0.25-0.77-0.67-0.77
		c-0.55,0-0.89,0.41-0.9,1.22v2.95c0,0.1-0.06,0.16-0.16,0.16h-1.6c-0.1,0-0.16-0.06-0.16-0.16v-8.42c0-0.1,0.06-0.16,0.16-0.16h1.6
		c0.1,0,0.16,0.06,0.16,0.16V19.68z"/>
</g>
</svg>
