<?xml version="1.0" encoding="utf-8"?>
<!-- Generator: Adobe Illustrator 27.7.0, SVG Export Plug-In . SVG Version: 6.00 Build 0)  -->
<svg version="1.1" id="Layer_1" xmlns="http://www.w3.org/2000/svg" xmlns:xlink="http://www.w3.org/1999/xlink" width="30" height="30"
	 viewBox="0 0 19.97 24.6" style="enable-background:new 0 0 19.97 24.6;" xml:space="preserve">
<style type="text/css">
	.st0{fill:#969696;fill-opacity:0;}
	.st1{fill:#969696;}
</style>
<g>
	<rect class="st0" width="19.97" height="24.6"/>
	<path class="st1" d="M4.74,5.41h1.57V3.1c0-0.97,0.52-1.52,1.53-1.52h4.32v5.01c0,1.13,0.55,1.67,1.67,1.67h4.57v8.35
		c0,0.98-0.53,1.52-1.54,1.52h-1.92v1.57h2.01c2.01,0,3.03-1.04,3.03-3.07V8.7c0-1.2-0.24-1.96-0.98-2.71l-4.93-5.01
		C13.37,0.26,12.55,0,11.5,0H7.76C5.75,0,4.74,1.04,4.74,3.07V5.41z M13.57,6.35v-4l4.41,4.49h-3.94
		C13.71,6.84,13.57,6.69,13.57,6.35z"/>
	<path class="st1" d="M0,21.5c0,2.04,1.01,3.07,3.03,3.07h9.18c2.02,0,3.03-1.04,3.03-3.07v-7.63c0-1.25-0.15-1.8-0.93-2.6L8.93,5.8
		C8.18,5.04,7.57,4.87,6.47,4.87H3.03C1.02,4.87,0,5.9,0,7.94V21.5z M1.57,21.47V7.96C1.57,7,2.09,6.45,3.1,6.45h3.2v5.66
		c0,1.23,0.62,1.85,1.84,1.85h5.52v7.52c0,0.98-0.53,1.52-1.53,1.52H3.1C2.09,23,1.57,22.45,1.57,21.47z M8.33,12.48
		c-0.39,0-0.55-0.16-0.55-0.55V6.81l5.58,5.67H8.33z"/>
</g>
</svg>
