                    <svg version="1.1" id="Layer_1" xmlns="http://www.w3.org/2000/svg" xmlns:xlink="http://www.w3.org/1999/xlink" x="0px" y="0px" width="40" height="40"
                        viewBox="0 0 19.9 19.9" style="enable-background:new 0 0 19.9 19.9;" xml:space="preserve">
                   <style type="text/css">
                       .st0{fill:#D40011;fill-opacity:0;}
                       .st1{fill:#D40011;fill-opacity:0.2125;}
                       .st2{fill:#D40011;fill-opacity:0.85;}
                   </style>
                   <g>
                       <rect class="st0" width="19.9" height="19.9"/>
                       <path class="st1" d="M10,19.9c5.4,0,10-4.5,10-10c0-5.4-4.5-10-10-10C4.5,0,0,4.5,0,10C0,15.4,4.5,19.9,10,19.9z"/>
                       <path class="st2" d="M8,10l-3.5,3.4c-0.1-0.1-0.1-0.4-0.1-0.7V7.2c0-0.4,0-0.6,0.1-0.7L8,10z M10,10.5c-0.2,0-0.4,0-0.6-0.2L5,5.9
                           c0.1-0.1,0.4-0.2,0.8-0.2h8.2c0.4,0,0.7,0.1,0.8,0.2l-4.4,4.4C10.3,10.4,10.1,10.5,10,10.5z M11.9,10l3.5-3.5
                           c0,0.1,0.1,0.3,0.1,0.7v5.5c0,0.4,0,0.6-0.1,0.7L11.9,10z M10,11.3c0.4,0,0.6-0.1,1-0.5l0.3-0.3l3.6,3.6c-0.1,0.1-0.4,0.2-0.8,0.2
                           H5.8c-0.4,0-0.7-0.1-0.8-0.2l3.6-3.6l0.3,0.3C9.3,11.2,9.6,11.3,10,11.3z"/>
                   </g>
                   </svg>