<?xml version="1.0" encoding="utf-8"?>
<!-- Generator: Adobe Illustrator 27.7.0, SVG Export Plug-In . SVG Version: 6.00 Build 0)  -->
<svg version="1.1" id="Layer_1" xmlns="http://www.w3.org/2000/svg" xmlns:xlink="http://www.w3.org/1999/xlink" x="0px" y="0px" width="40" height="40"
	 viewBox="0 0 40 40" style="enable-background:new 0 0 40 40;" xml:space="preserve">
<style type="text/css">
	.st0{opacity:0.25;}
	.st1{fill:#D40011;}
	.st2{fill:#D40011;fill-opacity:0;}
	.st3{fill:#D40011;fill-opacity:0.85;}
</style>
<g class="st0">
	<g>
		<path class="st1" d="M20,39.9c10.8,0,20-9,20-20c0-10.8-9-20-20-20C9.2,0.1,0,9.1,0,19.9C0,30.9,9.2,39.9,20,39.9z"/>
	</g>
</g>
<g>
	<rect x="9.2" y="9.3" class="st2" width="21.9" height="21.4"/>
	<path class="st3" d="M13,12h14.2v-0.2c0-1.4-1.1-2.1-2.7-2.1h-8.8c-1.5,0-2.7,0.6-2.7,2.1V12z M14.6,30.7h11c1.2,0,1.9-0.6,1.9-1.9
		v-1.9h0.7c1.9,0,2.9-1,2.9-2.9v-7.9c0-1.9-1-2.9-2.9-2.9H12.1c-1.8,0-2.9,1-2.9,2.9v7.9c0,1.9,1,2.9,2.9,2.9h0.7v1.9
		C12.7,30.1,13.4,30.7,14.6,30.7z M14.8,17.8c-0.3,0-0.5-0.2-0.5-0.5v-0.9c0-0.3,0.2-0.4,0.5-0.4h0.9c0.3,0,0.4,0.2,0.4,0.4v0.9
		c0,0.3-0.2,0.5-0.4,0.5H14.8z M18.1,17.8c-0.3,0-0.4-0.2-0.4-0.5v-0.9c0-0.3,0.2-0.4,0.4-0.4H19c0.3,0,0.5,0.2,0.5,0.4v0.9
		c0,0.3-0.2,0.5-0.5,0.5H18.1z M21.4,17.8c-0.3,0-0.5-0.2-0.5-0.5v-0.9c0-0.3,0.2-0.4,0.5-0.4h0.9c0.3,0,0.4,0.2,0.4,0.4v0.9
		c0,0.3-0.2,0.5-0.4,0.5H21.4z M24.7,17.8c-0.3,0-0.4-0.2-0.4-0.5v-0.9c0-0.3,0.2-0.4,0.4-0.4h0.9c0.3,0,0.4,0.2,0.4,0.4v0.9
		c0,0.3-0.2,0.5-0.4,0.5H24.7z M14.8,21.2c-0.3,0-0.5-0.2-0.5-0.4v-0.9c0-0.3,0.2-0.5,0.5-0.5h0.9c0.3,0,0.4,0.2,0.4,0.5v0.9
		c0,0.3-0.2,0.4-0.4,0.4H14.8z M18.1,21.2c-0.3,0-0.4-0.2-0.4-0.4v-0.9c0-0.3,0.2-0.5,0.4-0.5H19c0.3,0,0.5,0.2,0.5,0.5v0.9
		c0,0.3-0.2,0.4-0.5,0.4H18.1z M21.4,21.2c-0.3,0-0.5-0.2-0.5-0.4v-0.9c0-0.3,0.2-0.5,0.5-0.5h0.9c0.3,0,0.4,0.2,0.4,0.5v0.9
		c0,0.3-0.2,0.4-0.4,0.4H21.4z M24.7,21.2c-0.3,0-0.4-0.2-0.4-0.4v-0.9c0-0.3,0.2-0.5,0.4-0.5h0.9c0.3,0,0.4,0.2,0.4,0.5v0.9
		c0,0.3-0.2,0.4-0.4,0.4H24.7z M15.1,29.2c-0.5,0-0.8-0.3-0.8-0.8v-3.3c0-0.5,0.3-0.8,0.8-0.8h10.1c0.5,0,0.8,0.3,0.8,0.8v3.3
		c0,0.5-0.3,0.8-0.8,0.8H15.1z M16.9,27.5h6.7c0.4,0,0.7-0.3,0.7-0.8c0-0.4-0.3-0.7-0.7-0.7h-6.7c-0.4,0-0.7,0.3-0.7,0.7
		C16.1,27.2,16.4,27.5,16.9,27.5z"/>
</g>
</svg>
