<?xml version="1.0" encoding="utf-8"?>
<!-- Generator: Adobe Illustrator 27.7.0, SVG Export Plug-In . SVG Version: 6.00 Build 0)  -->
<svg version="1.1" id="Layer_1" xmlns="http://www.w3.org/2000/svg" xmlns:xlink="http://www.w3.org/1999/xlink" x="0px" y="0px"
	 viewBox="0 0 319.69 319.87" style="enable-background:new 0 0 319.69 319.87;" xml:space="preserve">
<style type="text/css">
	.st0{fill:#0082BF;}
	.st1{fill:#F99C24;}
	.st2{fill:#1D51A3;}
	.st3{fill:#EF3A4C;}
	.st4{fill:#FFC60A;}
	.st5{fill:#C12033;}
	.st6{fill:#1D51A3;stroke:#1D51A3;stroke-width:0.1;stroke-miterlimit:10;}
</style>
<g>
	<g>
		<circle class="st0" cx="62.13" cy="121.46" r="12.63"/>
		<path class="st1" d="M122.64,90.76c0-1.77,0-3.54-0.13-5.18c-0.13,1.52-0.25,3.16-0.38,4.67c0,0.38,0,0.88,0,1.26h0.51
			C122.77,91.14,122.64,90.89,122.64,90.76z"/>
		<g>
			<path class="st2" d="M52.78,193.21c0-0.51,0-0.88-0.13-1.39c0-0.38-4.42-27.92-7.83-53.44l-1.89-15.03l-1.39-15.29
				c-0.51-5.05-4.93-8.72-9.85-8.21c-5.05,0.51-8.72,4.93-8.21,9.85l1.39,15.41v0.25c0.63,4.8,1.26,9.98,2.02,15.29l0,0l0,0
				c3.03,22.49,6.82,46.36,7.71,52.43h18.19V193.21z"/>
			<path class="st0" d="M76.53,4.98c-9.98,0.25-24.38,2.15-35.75,14.78C24.36,37.95,19.05,72.57,24.87,125.37l1.26,10.23
				l15.92-21.35c-2.65-30.57-2.02-66.58,12.25-82.37c5.18-5.68,11.12-7.83,17.69-8.46L85.38,5.61C84.11,5.23,78.43,4.86,76.53,4.98z
				"/>
		</g>
		<circle class="st3" cx="222.19" cy="63.09" r="12.63"/>
		<g>
			<path class="st1" d="M152.08,24.18c-7.58,6.32-13.64,13.39-18.07,21.35c3.92,10.74,6.82,25.27,6.82,45.23c0,0.25,0,0.51,0,0.76
				h0.51v-0.13c2.53-41.31,22.87-54.32,33.73-58.24l9.47-20.97C176.21,12.56,163.2,14.96,152.08,24.18z"/>
			<path class="st4" d="M115.44,19.64l-10.86,14.53c1.26,0.76,4.8,3.16,8.46,9.22c4.17,6.95,8.97,19.71,9.6,42.07
				c1.14-12.51,4.3-26.91,11.37-39.92C128.46,30.5,120.62,23.05,115.44,19.64z"/>
			<path class="st1" d="M134.01,45.53c-7.2,13.01-10.23,27.54-11.37,39.92c0,1.64,0.13,3.41,0.13,5.18c0,0.25,0,0.51,0,0.76h18.07
				c0-0.25,0-0.51,0-0.76C140.84,70.8,138.06,56.27,134.01,45.53z"/>
			<path class="st4" d="M134.01,45.53c-7.2,13.01-10.23,27.54-11.37,39.92c0,1.64,0.13,3.41,0.13,5.18c0,0.25,0,0.51,0,0.76h18.07
				c0-0.25,0-0.51,0-0.76C140.84,70.8,138.06,56.27,134.01,45.53z"/>
		</g>
		<g>
			<path class="st5" d="M255.16,139.65c-7.45,33.73-17.43,74.79-28.17,105.48l0,0h20.09c16.68-50.03,30.95-119.76,36.76-149.83
				C277.02,125.75,264.89,136.36,255.16,139.65z"/>
			<path class="st5" d="M269.44,88.61c-0.63,0.63-1.39,1.39-2.15,2.15c0.88-0.88,1.77-1.64,2.53-2.4
				C269.69,88.49,269.57,88.49,269.44,88.61z"/>
			<path class="st5" d="M264.89,93.29c0.38-0.38,0.76-0.76,1.14-1.26C265.4,92.65,265.02,93.03,264.89,93.29z"/>
			<polygon class="st3" points="264.76,93.29 264.76,93.29 264.89,93.29 			"/>
			<path class="st3" d="M282.58,43.64C249.98,59.18,229.27,78,221.18,99.6c-4.17,11.12-1.39,24,6.95,32.72
				c5.31,5.56,12.13,8.59,19.08,8.59c2.53,0,5.05-0.38,7.45-1.14c0.13,0,0.25-0.13,0.51-0.13c4.17-18.57,7.45-35.12,9.6-46.36
				c-4.42,19.58-10.11,27.54-15.54,29.18c-3.54,1.14-6.44-1.14-7.83-2.53c-2.91-3.16-5.05-8.59-3.16-13.9
				c7.96-21.22,32.72-36.76,52.17-45.98c3.03-1.39,6.06-2.78,8.97-4.04l4.3-21.22C296.98,37.32,289.78,40.23,282.58,43.64z"/>
			<path class="st3" d="M267.29,90.76c-0.38,0.38-0.88,0.88-1.26,1.26C266.41,91.64,266.79,91.14,267.29,90.76z"/>
			<path class="st3" d="M285.74,85.07c0.13-0.88,1.26-7.33,1.26-8.59c-0.13,1.14-0.88,5.81-0.88,5.81
				C286.11,83.31,285.99,84.19,285.74,85.07z"/>
			<path class="st3" d="M287.13,76.48c0,0-8.09,3.54-17.18,11.75c2.91-2.65,5.94-5.05,9.22-7.2L287.13,76.48z"/>
			<path class="st5" d="M283.84,95.43c0.88-4.3,1.52-7.83,1.89-10.23c0.13-0.88,0.25-1.77,0.38-2.78c0,0,0.76-4.67,0.88-5.81
				l-7.96,4.67c-3.28,2.15-6.32,4.55-9.22,7.2c-0.76,0.63-1.64,1.39-2.53,2.27c-0.51,0.51-0.88,0.88-1.26,1.26s-0.76,0.76-1.14,1.26
				l-0.13,0.13c-2.15,11.12-5.43,27.67-9.6,46.24C264.89,136.36,277.02,125.75,283.84,95.43z"/>
			<path class="st3" d="M283.84,95.43c0.88-4.3,1.52-7.83,1.89-10.23c0.13-0.88,0.25-1.77,0.38-2.78c0,0,0.76-4.67,0.88-5.81
				l-7.96,4.67c-3.28,2.15-6.32,4.55-9.22,7.2c-0.76,0.63-1.64,1.39-2.53,2.27c-0.51,0.51-0.88,0.88-1.26,1.26s-0.76,0.76-1.14,1.26
				l-0.13,0.13c-2.15,11.12-5.43,27.67-9.6,46.24C264.89,136.36,277.02,125.75,283.84,95.43z"/>
		</g>
	</g>
	<g>
		<path class="st6" d="M36.42,217.76c0.25,0,0.51,0,0.63,0c0.63,0,1.26,0.13,1.64,0.51c0.38,0.38,0.63,0.76,0.76,1.39
			c0.38-0.63,1.01-1.14,1.77-1.52s1.52-0.63,2.27-0.63s1.39,0.13,1.89,0.38c0.51,0.25,0.76,0.63,0.76,1.14
			c0,0.38-0.13,0.76-0.25,1.14c-0.13,0.38-0.38,0.88-0.63,1.26c-0.38-0.38-0.76-0.51-1.14-0.76c-0.38-0.13-0.88-0.25-1.39-0.25
			c-0.88,0-1.64,0.25-2.27,0.76s-1.01,1.14-1.01,1.77v12.38h-3.16v-17.56H36.42z"/>
		<path class="st6" d="M63.96,226.61c0,1.89-0.38,3.54-1.01,5.05c-0.63,1.39-1.64,2.53-2.78,3.28c-1.26,0.76-2.65,1.14-4.42,1.14
			c-2.65,0-4.67-0.76-6.06-2.4c-1.39-1.64-2.15-3.92-2.15-6.82c0-1.89,0.38-3.54,1.01-4.93c0.76-1.39,1.64-2.53,2.91-3.28
			c1.26-0.76,2.65-1.14,4.3-1.14c2.65,0,4.55,0.76,5.94,2.4C63.2,221.43,63.96,223.7,63.96,226.61z M60.55,226.61
			c0-4.3-1.64-6.44-4.8-6.44c-1.64,0-2.78,0.51-3.66,1.64c-0.88,1.14-1.26,2.65-1.26,4.67c0,2.15,0.38,3.79,1.26,4.93
			c0.88,1.14,2.02,1.77,3.66,1.77s2.78-0.51,3.66-1.64C60.17,230.4,60.55,228.76,60.55,226.61z"/>
		<path class="st6" d="M68.51,217.76c0.25,0,0.51,0,0.76,0c1.39,0,2.15,0.63,2.4,1.89c0.63-0.76,1.52-1.26,2.53-1.64
			c1.01-0.38,2.02-0.63,3.16-0.63c1.01,0,2.02,0.25,2.91,0.63c0.88,0.38,1.52,1.01,2.02,1.64c0.63-0.76,1.52-1.26,2.53-1.64
			c1.01-0.38,2.02-0.63,3.16-0.63c1.52,0,2.65,0.38,3.66,1.01c0.88,0.63,1.52,1.64,1.77,2.91c0.13,0.63,0.25,1.77,0.25,3.41v10.61
			h-3.16v-10.49c0-0.51,0-0.88,0-1.39c0-0.38-0.13-0.88-0.25-1.26c-0.13-0.76-0.51-1.26-1.14-1.52c-0.51-0.38-1.39-0.51-2.4-0.51
			c-0.76,0-1.52,0.13-2.15,0.51c-0.76,0.38-1.26,0.76-1.64,1.14c0.13,0.76,0.13,1.64,0.13,2.78v10.61h-3.16v-10.36
			c0-1.14-0.13-2.02-0.38-2.78c-0.38-1.26-1.52-1.89-3.41-1.89c-1.01,0-2.02,0.25-2.91,0.88c-0.88,0.51-1.39,1.14-1.39,1.77v12.51
			h-3.16v-17.56H68.51z"/>
		<path class="st6" d="M99.58,221.81c-0.25-0.38-0.38-0.63-0.51-1.01c-0.13-0.38-0.25-0.63-0.25-0.88c0-0.38,0.38-0.88,1.01-1.14
			c0.63-0.38,1.52-0.63,2.53-0.88c1.01-0.25,2.02-0.38,3.03-0.38c2.4,0,4.04,0.51,5.05,1.52c1.01,1.01,1.52,2.65,1.52,5.05v7.33
			c0,0.76,0,1.26,0.13,1.64c0.13,0.38,0.25,0.63,0.38,0.76c0.25,0.13,0.63,0.25,1.26,0.25v1.52c-0.51,0.13-1.14,0.25-1.77,0.25
			c-1.89,0-2.91-0.76-3.03-2.15c-0.76,0.76-1.64,1.39-2.53,1.77c-0.88,0.38-1.89,0.51-3.16,0.51c-1.77,0-3.16-0.51-4.17-1.39
			c-1.01-0.88-1.52-2.15-1.52-3.92c0-2.02,0.88-3.54,2.53-4.67c1.64-1.14,4.04-1.64,7.07-1.77c0.76,0,1.26,0,1.52,0v-0.63
			c0-1.26-0.25-2.15-0.88-2.65c-0.63-0.51-1.64-0.76-3.03-0.76c-1.01,0-1.89,0.13-2.65,0.38c-0.76,0.25-1.64,0.63-2.4,1.26
			C99.71,221.81,99.58,221.81,99.58,221.81z M109.06,226.61h-1.14c-2.27,0-4.04,0.38-5.18,1.01c-1.14,0.63-1.77,1.52-1.77,2.65
			c0,0.88,0.25,1.64,0.76,2.15c0.51,0.51,1.39,0.76,2.4,0.76c0.88,0,1.64-0.13,2.4-0.51c0.76-0.25,1.39-0.63,1.77-1.14
			c0.51-0.51,0.63-0.88,0.63-1.26v-3.66H109.06z"/>
		<path class="st6" d="M117.77,217.76c0.25,0,0.38,0,0.63,0c0.63,0,1.26,0.13,1.64,0.51c0.38,0.38,0.63,0.76,0.76,1.39
			c0.76-0.76,1.52-1.26,2.53-1.64c1.01-0.38,2.15-0.63,3.28-0.63c1.52,0,2.78,0.38,3.66,1.01c1.01,0.63,1.64,1.64,1.89,2.91
			c0.13,0.63,0.25,1.77,0.25,3.41v10.61h-3.16v-10.49c0-1.26-0.13-2.02-0.25-2.53c-0.25-0.76-0.63-1.26-1.14-1.52
			c-0.63-0.38-1.39-0.51-2.4-0.51c-0.88,0-1.64,0.13-2.4,0.38c-0.76,0.25-1.26,0.63-1.64,1.01c-0.38,0.38-0.63,0.88-0.63,1.26v12.38
			h-3.16v-17.56H117.77z"/>
		<path class="st6" d="M137.48,212.08c0-0.63,0.25-1.14,0.63-1.52c0.38-0.38,0.88-0.63,1.39-0.63c0.63,0,1.01,0.25,1.39,0.63
			c0.51,0.38,0.63,0.88,0.63,1.52c0,0.63-0.25,1.01-0.63,1.39c-0.38,0.38-0.88,0.63-1.39,0.63c-0.63,0-1.01-0.25-1.39-0.63
			S137.48,212.71,137.48,212.08z M138.11,217.64c0.25,0,0.51,0,0.63,0c1.64,0,2.53,0.88,2.53,2.53v11.87c0,0.76,0.13,1.39,0.38,1.64
			c0.25,0.25,0.76,0.38,1.39,0.38v1.39c-0.51,0.13-1.26,0.25-2.02,0.25c-0.63,0-1.26-0.13-1.64-0.38c-0.38-0.25-0.76-0.63-1.01-1.01
			c-0.25-0.51-0.38-1.26-0.38-2.4v-14.28H138.11z"/>
		<path class="st6" d="M147.71,221.81c-0.25-0.38-0.38-0.63-0.51-1.01s-0.25-0.63-0.25-0.88c0-0.38,0.38-0.88,1.01-1.14
			s1.52-0.63,2.53-0.88s2.02-0.38,3.03-0.38c2.4,0,4.04,0.51,5.05,1.52s1.52,2.65,1.52,5.05v7.33c0,0.76,0,1.26,0.13,1.64
			c0.13,0.38,0.25,0.63,0.38,0.76c0.25,0.13,0.63,0.25,1.26,0.25v1.52c-0.51,0.13-1.14,0.25-1.77,0.25c-1.89,0-2.91-0.76-3.03-2.15
			c-0.76,0.76-1.64,1.39-2.53,1.77c-0.88,0.38-1.89,0.51-3.16,0.51c-1.77,0-3.16-0.51-4.17-1.39s-1.52-2.15-1.52-3.92
			c0-2.02,0.88-3.54,2.53-4.67c1.64-1.14,4.04-1.64,7.07-1.77c0.76,0,1.26,0,1.52,0v-0.63c0-1.26-0.25-2.15-0.88-2.65
			c-0.63-0.51-1.64-0.76-3.03-0.76c-1.01,0-1.89,0.13-2.65,0.38s-1.64,0.63-2.4,1.26C147.84,221.81,147.71,221.81,147.71,221.81z
			 M157.19,226.61h-1.14c-2.27,0-4.04,0.38-5.18,1.01s-1.77,1.52-1.77,2.78c0,0.88,0.25,1.64,0.76,2.15
			c0.51,0.51,1.39,0.76,2.4,0.76c0.88,0,1.64-0.13,2.4-0.51c0.76-0.25,1.39-0.63,1.77-1.14c0.51-0.51,0.63-0.88,0.63-1.26v-3.79
			H157.19z"/>
		<path class="st6" d="M165.91,217.76c0.25,0,0.38,0,0.63,0c0.63,0,1.26,0.13,1.64,0.51c0.38,0.38,0.63,0.76,0.76,1.39
			c0.76-0.76,1.52-1.26,2.53-1.64c1.01-0.38,2.15-0.63,3.28-0.63c1.52,0,2.78,0.38,3.66,1.01c1.01,0.63,1.64,1.64,1.89,2.91
			c0.13,0.63,0.25,1.77,0.25,3.41v10.61h-3.16v-10.49c0-1.26-0.13-2.02-0.25-2.53c-0.25-0.76-0.63-1.26-1.14-1.52
			c-0.63-0.38-1.39-0.51-2.4-0.51c-0.88,0-1.64,0.13-2.4,0.38c-0.76,0.25-1.26,0.63-1.64,1.01c-0.38,0.38-0.63,0.88-0.63,1.26v12.38
			h-3.16v-17.56H165.91z"/>
		<path class="st6" d="M47.79,273.35c-1.39,1.39-3.03,2.02-4.93,2.02c-2.4,0-4.17-0.76-5.43-2.4c-1.26-1.52-1.89-3.79-1.89-6.7
			c0-2.02,0.25-3.66,0.88-5.05c0.63-1.39,1.52-2.53,2.65-3.28c1.14-0.76,2.4-1.14,3.92-1.14c2.02,0,3.66,0.63,4.93,1.89
			c0.13-0.51,0.38-0.88,0.76-1.14c0.38-0.25,0.88-0.51,1.39-0.51c0.38,0,0.63,0,0.88,0.13v16.42c0,2.27-0.25,4.17-0.88,5.56
			c-0.63,1.39-1.52,2.4-2.78,3.03c-1.26,0.63-2.91,1.01-4.93,1.01c-2.02,0-3.79-0.38-5.18-1.14c-0.51-0.25-0.76-0.51-1.01-0.76
			c-0.13-0.25-0.25-0.51-0.25-0.76c0-0.51,0.38-1.14,1.14-2.02c0.13,0.25,0.63,0.51,1.26,0.88c0.63,0.38,1.26,0.63,2.02,0.88
			s1.39,0.25,2.02,0.25c1.26,0,2.27-0.25,3.16-0.63c0.76-0.38,1.39-1.14,1.77-2.02c0.38-0.88,0.51-2.4,0.51-4.3V273.35z
			 M47.66,261.47c-1.26-1.26-2.65-1.89-4.3-1.89c-1.52,0-2.65,0.51-3.41,1.64c-0.76,1.14-1.14,2.65-1.14,4.67
			c0,4.55,1.52,6.82,4.67,6.82c1.14,0,2.15-0.25,2.91-0.76c0.88-0.51,1.26-1.01,1.26-1.77V261.47z"/>
		<path class="st6" d="M61.56,274.74h-1.26l-6.06-17.31c0.51-0.25,1.14-0.25,1.64-0.25c1.14,0,2.02,0.76,2.53,2.15l4.17,12.76
			l4.17-12.38c0.51-1.64,1.39-2.53,2.65-2.53c0.51,0,1.01,0.13,1.39,0.38l-6.82,19.71c-0.51,1.64-1.14,2.78-1.64,3.54
			c-0.51,0.76-1.26,1.39-2.02,1.77c-0.76,0.38-1.64,0.63-2.65,0.63c-1.01,0-1.89-0.13-2.4-0.51c-0.63-0.25-0.88-0.76-0.88-1.26
			c0-0.63,0.25-1.26,0.88-2.02c0.76,0.63,1.64,1.01,2.53,1.01s1.52-0.25,2.02-0.88c0.51-0.63,1.01-1.64,1.52-3.03L61.56,274.74z"/>
		<path class="st6" d="M73.94,257.18c0.25,0,0.51,0,0.76,0c1.39,0,2.15,0.63,2.4,1.89c0.63-0.76,1.52-1.26,2.53-1.64
			c1.01-0.38,2.02-0.63,3.16-0.63c1.01,0,2.02,0.25,2.91,0.63c0.88,0.38,1.52,1.01,2.02,1.64c0.63-0.76,1.52-1.26,2.53-1.64
			c1.01-0.38,2.02-0.63,3.16-0.63c1.52,0,2.65,0.38,3.66,1.01s1.52,1.64,1.77,2.91c0.13,0.63,0.25,1.77,0.25,3.41v10.61h-3.16
			v-10.49c0-0.51,0-0.88,0-1.39c0-0.38-0.13-0.88-0.25-1.26c-0.13-0.76-0.51-1.26-1.14-1.52c-0.51-0.38-1.39-0.51-2.4-0.51
			c-0.76,0-1.52,0.13-2.15,0.51c-0.76,0.38-1.26,0.76-1.64,1.14c0.13,0.76,0.13,1.64,0.13,2.78v10.61h-3.16v-10.36
			c0-1.14-0.13-2.02-0.38-2.78c-0.38-1.26-1.52-1.89-3.41-1.89c-1.01,0-2.02,0.25-2.91,0.88c-0.88,0.51-1.39,1.14-1.39,1.77v12.51
			h-3.16v-17.56H73.94z"/>
		<path class="st6" d="M104.38,257.18c0.25,0,0.38,0,0.63,0c0.63,0,1.26,0.13,1.64,0.51c0.38,0.38,0.63,0.76,0.76,1.39
			c0.76-0.76,1.52-1.26,2.53-1.64c1.01-0.38,2.15-0.63,3.28-0.63c1.52,0,2.78,0.38,3.66,1.01c1.01,0.63,1.64,1.64,1.89,2.91
			c0.13,0.63,0.25,1.77,0.25,3.41v10.61h-3.16v-10.49c0-1.26-0.13-2.02-0.25-2.53c-0.25-0.76-0.63-1.26-1.14-1.52
			c-0.63-0.38-1.39-0.51-2.4-0.51c-0.88,0-1.64,0.13-2.4,0.38c-0.76,0.25-1.26,0.63-1.64,1.01c-0.38,0.38-0.63,0.88-0.63,1.26v12.38
			h-3.16v-17.56H104.38z"/>
		<path class="st6" d="M125.35,261.1c-0.13-0.25-0.38-0.63-0.51-1.01c-0.13-0.38-0.25-0.63-0.25-0.88c0-0.38,0.38-0.88,1.01-1.14
			c0.63-0.38,1.52-0.63,2.53-0.88s2.02-0.38,3.03-0.38c2.4,0,4.04,0.51,5.05,1.52c1.01,1.01,1.52,2.65,1.52,5.05v7.33
			c0,0.76,0,1.26,0.13,1.64c0.13,0.38,0.25,0.63,0.38,0.76c0.25,0.13,0.63,0.25,1.26,0.25v1.52c-0.51,0.13-1.14,0.25-1.77,0.25
			c-1.89,0-2.91-0.76-3.03-2.15c-0.76,0.76-1.64,1.39-2.53,1.77c-0.88,0.38-1.89,0.51-3.16,0.51c-1.77,0-3.16-0.51-4.17-1.39
			c-1.01-0.88-1.52-2.15-1.52-3.92c0-2.02,0.88-3.54,2.53-4.67c1.64-1.14,4.04-1.64,7.07-1.77c0.76,0,1.26,0,1.52,0v-0.51
			c0-1.26-0.25-2.15-0.88-2.65s-1.64-0.76-3.03-0.76c-1.01,0-1.89,0.13-2.65,0.38c-0.76,0.25-1.64,0.63-2.4,1.26h-0.13V261.1z
			 M134.7,265.9h-1.14c-2.27,0-4.04,0.38-5.18,1.01c-1.14,0.63-1.77,1.52-1.77,2.78c0,0.88,0.25,1.64,0.76,2.15
			c0.51,0.51,1.39,0.76,2.4,0.76c0.88,0,1.64-0.13,2.4-0.51c0.76-0.25,1.39-0.63,1.77-1.14c0.51-0.51,0.63-0.88,0.63-1.26v-3.79
			H134.7z"/>
		<path class="st6" d="M153.15,261.35c-0.51-0.63-1.14-1.01-1.89-1.39c-0.88-0.38-1.64-0.51-2.53-0.51c-1.01,0-1.77,0.25-2.4,0.63
			c-0.63,0.38-0.88,0.88-0.88,1.64c0,0.38,0.13,0.76,0.38,1.01s0.51,0.63,1.01,0.88c0.51,0.25,1.26,0.51,2.27,0.76
			c1.39,0.38,2.53,0.76,3.41,1.26c0.76,0.51,1.39,1.01,1.77,1.77c0.38,0.76,0.63,1.52,0.63,2.53c0,1.64-0.63,3.03-1.89,4.04
			c-1.26,1.01-2.91,1.52-4.93,1.52c-1.64,0-3.03-0.25-4.17-0.76c-1.14-0.51-1.64-1.01-1.64-1.52c0-0.25,0-0.51,0.13-0.88
			c0.13-0.25,0.38-0.76,0.76-1.39c0.76,0.63,1.52,1.01,2.4,1.39c0.76,0.25,1.64,0.38,2.53,0.38c1.14,0,2.02-0.25,2.65-0.63
			c0.63-0.51,0.88-1.14,0.88-2.02c0-0.76-0.25-1.39-0.88-1.89c-0.51-0.51-1.52-0.88-3.03-1.14c-2.02-0.38-3.41-1.01-4.3-1.89
			c-0.88-0.88-1.26-1.89-1.26-3.28c0-1.52,0.63-2.78,1.77-3.66c1.14-0.88,2.65-1.39,4.55-1.39c0.88,0,1.77,0.13,2.53,0.25
			s1.39,0.38,1.89,0.76c0.88,0.51,1.26,1.01,1.26,1.52s-0.25,1.14-0.76,2.02H153.15z"/>
		<path class="st6" d="M158.83,251.87c0.25,0,0.51,0,0.63,0c1.64,0,2.53,0.88,2.53,2.53v2.91h5.56v2.65h-5.56v9.6
			c0,2.02,0.76,3.03,2.4,3.03c0.38,0,0.88-0.13,1.26-0.25c0.38-0.13,0.76-0.38,1.14-0.63c0.38-0.25,0.63-0.51,0.76-0.63
			c0.76,0.88,1.14,1.64,1.14,2.15c0,0.38-0.25,0.76-0.76,1.14c-0.51,0.38-1.01,0.63-1.77,0.88c-0.63,0.25-1.39,0.25-2.27,0.25
			c-2.53,0-4.04-0.88-4.8-2.78c-0.25-0.76-0.38-1.77-0.38-3.16v-17.69H158.83z"/>
		<path class="st6" d="M171.59,251.49c0-0.63,0.25-1.14,0.63-1.52c0.38-0.38,0.88-0.63,1.39-0.63c0.63,0,1.01,0.25,1.39,0.63
			s0.63,0.88,0.63,1.52s-0.25,1.01-0.63,1.39c-0.38,0.38-0.88,0.63-1.39,0.63c-0.63,0-1.01-0.25-1.39-0.63
			C171.72,252.51,171.59,252,171.59,251.49z M172.1,257.05c0.25,0,0.51,0,0.63,0c1.64,0,2.53,0.88,2.53,2.53v11.87
			c0,0.76,0.13,1.39,0.38,1.64c0.25,0.25,0.76,0.38,1.39,0.38v1.39c-0.51,0.13-1.26,0.25-2.02,0.25c-0.63,0-1.26-0.13-1.64-0.38
			c-0.38-0.25-0.76-0.63-1.01-1.01c-0.25-0.51-0.38-1.26-0.38-2.4v-14.28H172.1z"/>
		<path class="st6" d="M193.19,261.6c-0.63-0.63-1.26-1.26-2.02-1.52c-0.76-0.38-1.52-0.51-2.4-0.51c-1.77,0-3.03,0.51-3.92,1.64
			c-0.88,1.14-1.39,2.65-1.39,4.67c0,2.15,0.51,3.79,1.39,4.93c1.01,1.26,2.27,1.89,4.04,1.89c1.14,0,2.27-0.38,3.16-1.01
			c0.51-0.38,0.88-0.63,1.14-1.01c0.88,0.88,1.26,1.52,1.26,2.02c0,0.38-0.25,0.76-0.76,1.14c-0.51,0.51-1.26,0.88-2.15,1.14
			c-0.88,0.25-1.89,0.38-3.16,0.38c-1.64,0-3.16-0.38-4.42-1.14c-1.26-0.76-2.27-1.77-2.91-3.16s-1.01-3.03-1.01-5.05
			s0.38-3.66,1.14-4.93c0.76-1.39,1.77-2.4,3.16-3.16c1.39-0.76,2.78-1.14,4.3-1.14c1.14,0,2.02,0.13,2.91,0.38
			c0.88,0.25,1.52,0.63,2.15,1.14c0.51,0.51,0.76,0.88,0.76,1.26c0,0.51-0.25,1.14-0.88,2.02H193.19z"/>
		<path class="st6" d="M208.1,261.35c-0.51-0.63-1.14-1.01-1.89-1.39c-0.88-0.38-1.64-0.51-2.53-0.51c-1.01,0-1.77,0.25-2.4,0.63
			c-0.63,0.38-0.88,0.88-0.88,1.64c0,0.38,0.13,0.76,0.38,1.01c0.25,0.25,0.51,0.63,1.01,0.88c0.51,0.25,1.26,0.51,2.27,0.76
			c1.39,0.38,2.53,0.76,3.41,1.26c0.76,0.51,1.39,1.01,1.77,1.77c0.38,0.76,0.63,1.52,0.63,2.53c0,1.64-0.63,3.03-1.89,4.04
			c-1.26,1.01-2.91,1.52-4.93,1.52c-1.64,0-3.03-0.25-4.17-0.76c-1.14-0.51-1.64-1.01-1.64-1.52c0-0.25,0-0.51,0.13-0.88
			c0.13-0.25,0.38-0.76,0.76-1.39c0.76,0.63,1.52,1.01,2.4,1.39c0.76,0.25,1.64,0.38,2.53,0.38c1.14,0,2.02-0.25,2.65-0.63
			c0.63-0.51,0.88-1.14,0.88-2.02c0-0.76-0.25-1.39-0.88-1.89c-0.51-0.51-1.52-0.88-3.03-1.14c-2.02-0.38-3.41-1.01-4.3-1.89
			c-0.88-0.88-1.26-1.89-1.26-3.28c0-1.52,0.63-2.78,1.77-3.66c1.14-0.88,2.65-1.39,4.55-1.39c0.88,0,1.77,0.13,2.53,0.25
			s1.39,0.38,1.89,0.76c0.88,0.51,1.26,1.01,1.26,1.52s-0.25,1.14-0.76,2.02H208.1z"/>
		<path class="st6" d="M36.29,294.7c0-2.4,0.51-4.17,1.64-5.43c1.14-1.26,2.78-1.89,4.93-1.89c1.01,0,1.89,0.13,2.65,0.38
			c0.76,0.25,1.39,0.63,1.89,1.01c0.51,0.38,0.76,0.76,0.76,1.14c0,0.51-0.25,1.14-0.88,1.89h-0.63c-0.88-1.14-2.15-1.77-3.66-1.77
			c-1.26,0-2.15,0.38-2.65,1.01c-0.63,0.63-0.88,1.64-0.88,3.03v2.4h6.32v2.78h-6.32v14.78h-3.16V294.7z"/>
		<path class="st6" d="M50.57,305.94c0.13,1.89,0.63,3.41,1.52,4.42c0.88,1.01,2.27,1.52,4.04,1.52c2.02,0,3.66-0.76,4.93-2.15
			c0.25,0.38,0.51,0.76,0.76,1.14c0.25,0.38,0.25,0.63,0.25,0.88c0,0.38-0.25,0.88-0.88,1.26c-1.39,1.01-3.16,1.52-5.43,1.52
			c-2.78,0-4.8-0.76-6.32-2.4s-2.15-3.92-2.15-7.07c0-1.89,0.38-3.54,1.01-4.8c0.63-1.39,1.64-2.4,2.91-3.16
			c1.26-0.76,2.65-1.14,4.17-1.14s2.78,0.38,3.92,1.01s1.89,1.52,2.4,2.65s0.88,2.53,0.88,4.04c0,1.01,0,1.64-0.13,2.15H50.57
			V305.94z M59.28,303.54c0-3.16-1.39-4.8-4.17-4.8c-1.26,0-2.4,0.38-3.16,1.26c-0.88,0.88-1.26,2.02-1.39,3.54H59.28z"/>
		<path class="st6" d="M78.23,312.64c-1.39,1.39-3.03,2.02-4.93,2.02c-2.4,0-4.17-0.76-5.43-2.4c-1.26-1.52-1.89-3.79-1.89-6.7
			c0-2.02,0.25-3.66,0.88-5.05s1.52-2.53,2.65-3.28c1.14-0.76,2.4-1.14,3.92-1.14c1.89,0,3.41,0.63,4.8,1.77V287.5
			c0.25,0,0.51,0,0.63,0c1.64,0,2.53,0.88,2.53,2.53v24h-3.16V312.64z M78.11,300.89c-0.76-0.76-1.52-1.26-2.15-1.52
			c-0.63-0.25-1.39-0.38-2.15-0.38c-1.52,0-2.65,0.51-3.41,1.64c-0.76,1.14-1.14,2.65-1.14,4.67c0,4.55,1.64,6.82,4.8,6.82
			c1.14,0,2.15-0.25,2.91-0.76c0.88-0.51,1.26-1.01,1.26-1.77v-8.72H78.11z"/>
		<path class="st6" d="M89.1,305.94c0.13,1.89,0.63,3.41,1.52,4.42c0.88,1.01,2.27,1.52,4.04,1.52c2.02,0,3.66-0.76,4.93-2.15
			c0.25,0.38,0.51,0.76,0.76,1.14c0.25,0.38,0.25,0.63,0.25,0.88c0,0.38-0.25,0.88-0.88,1.26c-1.39,1.01-3.16,1.52-5.43,1.52
			c-2.78,0-4.8-0.76-6.32-2.4s-2.15-3.92-2.15-7.07c0-1.89,0.38-3.54,1.01-4.8c0.63-1.39,1.64-2.4,2.91-3.16
			c1.26-0.76,2.65-1.14,4.17-1.14c1.52,0,2.78,0.38,3.92,1.01c1.14,0.63,1.89,1.52,2.4,2.65c0.51,1.14,0.88,2.53,0.88,4.04
			c0,1.01,0,1.64-0.13,2.15H89.1V305.94z M97.81,303.54c0-3.16-1.39-4.8-4.17-4.8c-1.26,0-2.4,0.38-3.16,1.26
			c-0.88,0.88-1.26,2.02-1.39,3.54H97.81z"/>
		<path class="st6" d="M105.39,296.59c0.25,0,0.51,0,0.63,0c0.63,0,1.26,0.13,1.64,0.51c0.38,0.38,0.63,0.76,0.76,1.39
			c0.38-0.63,1.01-1.14,1.77-1.52c0.76-0.38,1.52-0.63,2.27-0.63c0.76,0,1.39,0.13,1.89,0.38c0.51,0.25,0.76,0.63,0.76,1.14
			c0,0.38-0.13,0.76-0.25,1.14c-0.13,0.51-0.38,0.88-0.63,1.26c-0.38-0.38-0.76-0.51-1.14-0.76c-0.38-0.13-0.88-0.25-1.39-0.25
			c-0.88,0-1.64,0.25-2.27,0.76c-0.63,0.51-1.01,1.14-1.01,1.77v12.38h-3.16v-17.56H105.39z"/>
		<path class="st6" d="M119.04,300.51c-0.25-0.38-0.38-0.63-0.51-1.01c-0.13-0.38-0.25-0.63-0.25-0.88c0-0.38,0.38-0.88,1.01-1.14
			c0.63-0.38,1.52-0.63,2.53-0.88c1.01-0.25,2.02-0.38,3.03-0.38c2.4,0,4.04,0.51,5.05,1.52c1.01,1.01,1.52,2.65,1.52,5.05v7.33
			c0,0.76,0,1.26,0.13,1.64c0.13,0.38,0.25,0.63,0.38,0.76c0.25,0.13,0.63,0.25,1.26,0.25v1.52c-0.51,0.13-1.14,0.25-1.77,0.25
			c-1.89,0-2.91-0.76-3.03-2.15c-0.76,0.76-1.64,1.39-2.53,1.77c-0.88,0.38-1.89,0.51-3.16,0.51c-1.77,0-3.16-0.51-4.17-1.39
			c-1.01-0.88-1.52-2.15-1.52-3.92c0-2.02,0.88-3.54,2.53-4.67c1.64-1.14,4.04-1.64,7.07-1.77c0.76,0,1.26,0,1.52,0v-0.51
			c0-1.26-0.25-2.15-0.88-2.65c-0.63-0.51-1.64-0.76-3.03-0.76c-1.01,0-1.89,0.13-2.65,0.38c-0.76,0.25-1.64,0.63-2.4,1.26h-0.13
			V300.51z M128.39,305.31h-1.14c-2.27,0-4.04,0.38-5.18,1.01c-1.14,0.63-1.77,1.52-1.77,2.78c0,0.88,0.25,1.64,0.76,2.15
			c0.51,0.51,1.39,0.76,2.4,0.76c0.88,0,1.64-0.13,2.4-0.51c0.76-0.25,1.39-0.63,1.77-1.14c0.51-0.51,0.63-0.88,0.63-1.26v-3.79
			H128.39z"/>
		<path class="st6" d="M137.23,291.29c0.25,0,0.51,0,0.63,0c1.64,0,2.53,0.88,2.53,2.53v2.91h5.56v2.65h-5.56v9.6
			c0,2.02,0.76,3.03,2.4,3.03c0.38,0,0.88-0.13,1.26-0.25c0.38-0.13,0.76-0.38,1.14-0.63s0.63-0.51,0.76-0.63
			c0.76,0.88,1.14,1.64,1.14,2.15c0,0.38-0.25,0.76-0.76,1.14c-0.51,0.38-1.01,0.63-1.77,0.88c-0.63,0.25-1.39,0.25-2.27,0.25
			c-2.53,0-4.04-0.88-4.8-2.78c-0.25-0.76-0.38-1.77-0.38-3.16v-17.69H137.23z"/>
		<path class="st6" d="M149.99,290.91c0-0.63,0.25-1.14,0.63-1.52c0.38-0.38,0.88-0.63,1.39-0.63s1.01,0.25,1.39,0.63
			c0.38,0.38,0.63,0.88,0.63,1.52s-0.25,1.01-0.63,1.39c-0.38,0.38-0.88,0.63-1.39,0.63s-1.01-0.25-1.39-0.63
			C150.11,291.92,149.99,291.41,149.99,290.91z M150.49,296.47c0.25,0,0.51,0,0.63,0c1.64,0,2.53,0.88,2.53,2.53v11.87
			c0,0.76,0.13,1.39,0.38,1.64c0.25,0.25,0.76,0.38,1.39,0.38v1.39c-0.51,0.13-1.26,0.25-2.02,0.25c-0.63,0-1.26-0.13-1.64-0.38
			c-0.38-0.25-0.76-0.63-1.01-1.01c-0.25-0.51-0.38-1.26-0.38-2.4v-14.28H150.49z"/>
		<path class="st6" d="M175,305.31c0,1.89-0.38,3.54-1.01,5.05c-0.63,1.39-1.64,2.53-2.78,3.28c-1.26,0.76-2.65,1.14-4.42,1.14
			c-2.65,0-4.67-0.76-6.06-2.4c-1.39-1.64-2.15-3.92-2.15-6.82c0-1.89,0.38-3.54,1.01-4.93c0.76-1.39,1.64-2.53,2.91-3.28
			c1.26-0.76,2.65-1.14,4.3-1.14c2.65,0,4.55,0.76,5.94,2.4C174.37,300.26,175,302.53,175,305.31z M171.72,305.31
			c0-4.3-1.64-6.44-4.8-6.44c-1.64,0-2.78,0.51-3.66,1.64c-0.88,1.14-1.26,2.65-1.26,4.67c0,2.15,0.38,3.79,1.26,4.93
			c0.88,1.14,2.02,1.77,3.66,1.77c1.64,0,2.78-0.51,3.66-1.64C171.21,309.23,171.72,307.58,171.72,305.31z"/>
		<path class="st6" d="M179.55,296.59c0.25,0,0.38,0,0.63,0c0.63,0,1.26,0.13,1.64,0.51c0.38,0.38,0.63,0.76,0.76,1.39
			c0.76-0.76,1.52-1.26,2.53-1.64c1.01-0.38,2.15-0.63,3.28-0.63c1.52,0,2.78,0.38,3.66,1.01c1.01,0.63,1.64,1.64,1.89,2.91
			c0.13,0.63,0.25,1.77,0.25,3.41v10.61h-3.16v-10.49c0-1.26-0.13-2.02-0.25-2.53c-0.25-0.76-0.63-1.26-1.14-1.52
			c-0.63-0.38-1.39-0.51-2.4-0.51c-0.88,0-1.64,0.13-2.4,0.38c-0.76,0.25-1.26,0.63-1.64,1.01c-0.38,0.38-0.63,0.88-0.63,1.26v12.38
			h-3.16v-17.56H179.55z"/>
	</g>
</g>
</svg>
