<?xml version="1.0" encoding="utf-8"?>
<!-- Generator: Adobe Illustrator 27.7.0, SVG Export Plug-In . SVG Version: 6.00 Build 0)  -->
<svg version="1.1" id="Layer_1" xmlns="http://www.w3.org/2000/svg" xmlns:xlink="http://www.w3.org/1999/xlink" x="0px" y="0px" width="40" height="40"
	 viewBox="0 0 20 19.9" style="enable-background:new 0 0 20 19.9;" xml:space="preserve">
<style type="text/css">
	.st0{opacity:0.25;}
	.st1{fill:#D40011;}
	.st2{fill:#D40011;fill-opacity:0.85;}
</style>
<g class="st0">
	<g>
		<path class="st1" d="M10,19.9c5.4,0,10-4.5,10-10c0-5.4-4.5-10-10-10C4.6,0,0,4.5,0,9.9C0,15.4,4.6,19.9,10,19.9z"/>
	</g>
</g>
<path class="st2" d="M7.6,12.3C5.2,9.9,3.7,7,5.5,5.2c0,0,0.1-0.1,0.1-0.1c0.7-0.5,1.3-0.6,1.7,0l1.2,1.7c0.4,0.6,0.3,1-0.1,1.4
	L8,8.6C7.9,8.8,8,9,8,9.1c0.2,0.3,0.7,0.9,1.2,1.5c0.6,0.6,1.2,1,1.5,1.2c0.1,0.1,0.3,0.1,0.4,0l0.4-0.4c0.4-0.4,0.8-0.5,1.4-0.1
	c0.8,0.6,1.3,0.9,1.8,1.3c0.6,0.4,0.5,1.1,0,1.6c-0.1,0.1-0.1,0.1-0.2,0.2C12.9,16.1,9.9,14.6,7.6,12.3z"/>
</svg>
