<?xml version="1.0" encoding="utf-8"?>
<!-- Generator: Adobe Illustrator 27.7.0, SVG Export Plug-In . SVG Version: 6.00 Build 0)  -->
<svg version="1.1" id="Layer_1" xmlns="http://www.w3.org/2000/svg" xmlns:xlink="http://www.w3.org/1999/xlink" width="80" height="80"
	 viewBox="0 0 48.59 39.59" style="enable-background:new 0 0 48.59 39.59;" xml:space="preserve">
<style type="text/css">
	.st0{fill-opacity:0;}
	.st1{fill:#FFFFFF;}
</style>
<g>
	<rect class="st0" width="48.59" height="39.59"/>
	<path class="st1" d="M15.84,38.54h26.15c3.4,0,5.21-1.72,5.21-5.14v-1.25l-9.06-8.55c-0.76-0.7-1.7-1.05-2.64-1.05
		c-0.98,0-1.84,0.31-2.64,1.04l-7.89,6.99l-3.14-2.83c-0.74-0.68-1.54-1-2.38-1c-0.76,0-1.48,0.31-2.25,0.96l-6.58,5.72
		C10.62,36.82,12.44,38.54,15.84,38.54z M23.57,24.02c2.27,0,4.12-1.89,4.12-4.18c0-2.25-1.86-4.14-4.12-4.14
		c-2.29,0-4.14,1.89-4.14,4.14C19.43,22.13,21.29,24.02,23.57,24.02z M6.13,30.53h4.84v-3.14h-4.8c-1.95,0-3.03-1.04-3.03-3.07V6.23
		c0-2.03,1.07-3.09,3.03-3.09h26.37c1.93,0,3.05,1.05,3.05,3.09v4.08h3.14V6.05C38.73,2.03,36.66,0,32.6,0H6.13
		C2.03,0,0,2.03,0,6.05v18.42C0,28.52,2.03,30.53,6.13,30.53z M15.78,39.57h26.68c4.06,0,6.13-2.03,6.13-6.05V15.1
		c0-4.02-2.07-6.05-6.13-6.05H15.78c-4.1,0-6.13,2.03-6.13,6.05v18.42C9.65,37.56,11.68,39.57,15.78,39.57z M15.82,36.43
		c-1.95,0-3.03-1.04-3.03-3.07V15.27c0-2.03,1.07-3.09,3.03-3.09H42.4c1.93,0,3.05,1.05,3.05,3.09v18.09c0,2.03-1.11,3.07-3.05,3.07
		H15.82z"/>
</g>
</svg>
