<?xml version="1.0" encoding="utf-8"?>
<!-- Generator: Adobe Illustrator 27.7.0, SVG Export Plug-In . SVG Version: 6.00 Build 0)  -->
<svg version="1.1" id="Layer_1" xmlns="http://www.w3.org/2000/svg" xmlns:xlink="http://www.w3.org/1999/xlink" x="0px" y="0px" width="40" height="40"
	 viewBox="0 0 40 40" style="enable-background:new 0 0 40 40;" xml:space="preserve">
<style type="text/css">
	.st0{opacity:0.25;fill:#D40011;}
	.st1{fill:#D40011;}
</style>
<path class="st0" d="M20,39.5c10.6,0,19.5-8.8,19.5-19.5C39.5,9.4,30.6,0.5,20,0.5C9.4,0.5,0.5,9.4,0.5,20
	C0.5,30.6,9.4,39.5,20,39.5z"/>
<path class="st1" d="M9.2,21.6c-1.7,0-1.9-1.8-0.6-2.4l18.6-8.8c1.5-0.7,2.8,0.6,2.1,2.1l-8.7,18.6c-0.6,1.3-2.5,1.1-2.5-0.7v-8.1
	c0-0.4-0.2-0.6-0.6-0.6L9.2,21.6z"/>
</svg>
